<svg data-name="Layer 1" viewBox="0 0 32 32" xmlns="http://www.w3.org/2000/svg"><path d="M18 29h-8a1 1 0 0 1-1-1v-4a5 5 0 0 1 10 0v4a1 1 0 0 1-1 1Zm-7-2h6v-3a3 3 0 0 0-6 0ZM16 15a5.07 5.07 0 0 1-4-2.083 5.43 5.43 0 0 1-.964 1 4.819 4.819 0 0 1-4.094.967 5.027 5.027 0 0 1-3.476-2.951 4.782 4.782 0 0 1-.072-3.5l.727-2.076A5 5 0 0 1 8.837 3h14.307a5 5 0 0 1 4.729 3.377l.736 2.145a4.8 4.8 0 0 1-.171 3.683 4.958 4.958 0 0 1-3.95 2.772A5 5 0 0 1 20 13a5 5 0 0 1-4 2ZM8.837 5a3 3 0 0 0-2.831 2.009l-.727 2.076a2.791 2.791 0 0 0 .017 2.04 3.051 3.051 0 0 0 2.091 1.8 2.827 2.827 0 0 0 2.4-.582A3.118 3.118 0 0 0 11 10a1 1 0 0 1 2 0 3.163 3.163 0 0 0 3 3 3 3 0 0 0 3-3 1 1 0 0 1 2 0 3.008 3.008 0 0 0 .983 2.221 2.947 2.947 0 0 0 4.665-.911 2.789 2.789 0 0 0 .069-2.138l-.737-2.146A3 3 0 0 0 23.144 5Z"/><path d="M23 29H9a5.006 5.006 0 0 1-5-5V12.54a1 1 0 0 1 2 0V24a3 3 0 0 0 3 3h14a3 3 0 0 0 3-3V12.58a1 1 0 1 1 2 0V24a5.006 5.006 0 0 1-5 5Z"/><path d="M23 21h-3a1 1 0 0 1 0-2h3a1 1 0 0 1 0 2Z"/></svg>