<svg xmlns="http://www.w3.org/2000/svg" width="180" height="180" viewBox="0 0 180 180" version="1.1"><path d="M 88 11 C 88 11.733, 88.300 12.033, 88.667 11.667 C 89.033 11.300, 89.033 10.700, 88.667 10.333 C 88.300 9.967, 88 10.267, 88 11 M 82.147 13.606 C 81.403 14.447, 80.166 14.894, 79.397 14.599 C 78.629 14.304, 78 14.525, 78 15.090 C 78 15.656, 77.601 15.872, 77.114 15.570 C 76.626 15.269, 75.993 15.917, 75.707 17.011 C 75.083 19.397, 76.274 19.583, 78.421 17.436 C 79.281 16.576, 80.326 16.080, 80.742 16.333 C 81.159 16.587, 82.309 15.715, 83.297 14.397 C 85.260 11.778, 84.330 11.138, 82.147 13.606 M 99 15.559 C 99 16.416, 99.450 16.840, 100 16.500 C 100.550 16.160, 101 15.459, 101 14.941 C 101 14.423, 100.550 14, 100 14 C 99.450 14, 99 14.702, 99 15.559 M 86.639 17.694 C 85.614 18.720, 85.903 21, 87.059 21 C 87.641 21, 87.864 20.588, 87.553 20.085 C 87.242 19.582, 87.531 18.990, 88.195 18.768 C 89.009 18.497, 89.056 18.153, 88.340 17.710 C 87.757 17.350, 86.991 17.342, 86.639 17.694 M 91.595 17.847 C 91.274 18.366, 91.748 19.073, 92.649 19.419 C 94.859 20.267, 95.376 19.557, 93.613 18.094 C 92.758 17.384, 91.943 17.284, 91.595 17.847 M 102.500 18 C 102.160 18.550, 102.359 19, 102.941 19 C 103.523 19, 104 18.550, 104 18 C 104 17.450, 103.802 17, 103.559 17 C 103.316 17, 102.840 17.450, 102.500 18 M 106.635 17.781 C 106.358 18.229, 106.490 19.174, 106.927 19.882 C 107.548 20.886, 107.852 20.828, 108.317 19.616 C 108.946 17.976, 107.494 16.392, 106.635 17.781 M 67.613 20.183 C 67.902 20.650, 68.557 20.774, 69.069 20.457 C 70.377 19.649, 70.230 19.333, 68.544 19.333 C 67.743 19.333, 67.324 19.716, 67.613 20.183 M 110 20 C 110 20.550, 110.450 21, 111 21 C 111.550 21, 112 20.550, 112 20 C 112 19.450, 111.550 19, 111 19 C 110.450 19, 110 19.450, 110 20 M 78.827 22.132 C 76.662 24.350, 78.712 25.331, 82.028 23.664 C 84.512 22.415, 85.867 20, 84.083 20 C 83.487 20, 82.986 20.788, 82.968 21.750 C 82.940 23.303, 82.799 23.326, 81.718 21.959 C 80.627 20.580, 80.325 20.598, 78.827 22.132 M 95 21 C 94.099 21.582, 93.975 21.975, 94.691 21.985 C 95.346 21.993, 96.160 21.550, 96.500 21 C 97.267 19.758, 96.921 19.758, 95 21 M 98.564 21.707 C 98.022 23.132, 98.136 23.247, 99.124 22.267 C 99.808 21.588, 100.115 20.781, 99.807 20.474 C 99.499 20.166, 98.940 20.721, 98.564 21.707 M 61.085 23.094 C 59.492 24.063, 57.898 24.564, 57.542 24.208 C 57.186 23.852, 57.191 24.335, 57.554 25.280 C 57.917 26.226, 58.642 27, 59.166 27 C 59.690 27, 59.859 26.581, 59.543 26.069 C 59.226 25.557, 59.425 24.856, 59.984 24.510 C 60.543 24.165, 61.014 24.471, 61.030 25.191 C 61.049 25.999, 61.451 25.830, 62.080 24.750 C 62.641 23.788, 63.977 23, 65.050 23 C 66.122 23, 67 22.625, 67 22.167 C 67 20.781, 64.156 21.227, 61.085 23.094 M 114.584 22.641 C 114.057 24.014, 114.204 24.076, 115.477 23.019 C 117.212 21.579, 117.393 21, 116.107 21 C 115.616 21, 114.931 21.739, 114.584 22.641 M 117.375 23.288 C 116.993 23.954, 117.036 24.178, 117.471 23.785 C 117.907 23.392, 119.142 23.541, 120.217 24.116 C 121.292 24.691, 122.360 24.974, 122.590 24.743 C 122.820 24.513, 121.898 23.819, 120.540 23.200 C 118.666 22.346, 117.904 22.367, 117.375 23.288 M 101.518 23.971 C 101.188 24.505, 102.062 25.228, 103.459 25.579 C 104.857 25.930, 106 26.693, 106 27.275 C 106 27.857, 106.296 28.037, 106.658 27.675 C 107.020 27.313, 107.920 27.519, 108.658 28.131 C 109.700 28.996, 109.998 28.826, 109.992 27.372 C 109.980 24.505, 102.936 21.677, 101.518 23.971 M 63 25 C 63 25.733, 63.300 26.033, 63.667 25.667 C 64.033 25.300, 64.033 24.700, 63.667 24.333 C 63.300 23.967, 63 24.267, 63 25 M 72.079 25.191 C 71.973 27.468, 73.642 28.375, 74.384 26.442 C 74.710 25.592, 74.571 25.147, 74.074 25.454 C 73.577 25.761, 72.943 25.447, 72.664 24.756 C 72.350 23.975, 72.128 24.140, 72.079 25.191 M 53.603 27.167 C 53.886 27.625, 53.304 28.069, 52.309 28.152 C 51.314 28.236, 49.941 28.353, 49.259 28.413 C 48.576 28.472, 48.010 28.965, 48 29.507 C 47.981 30.632, 50.455 30.640, 53.750 29.527 C 56.246 28.684, 56.830 26.333, 54.544 26.333 C 53.743 26.333, 53.320 26.708, 53.603 27.167 M 111.278 28.043 C 111.354 29.043, 111.659 29.797, 111.958 29.718 C 112.256 29.640, 113.625 30.206, 115 30.976 C 118.237 32.790, 121.335 33.109, 119.991 31.490 C 119.456 30.844, 119.126 30.127, 119.259 29.896 C 119.391 29.665, 118.938 30.130, 118.250 30.929 C 117.166 32.189, 117 32.167, 117 30.764 C 117 29.875, 115.682 28.489, 114.071 27.685 C 111.364 26.335, 111.152 26.362, 111.278 28.043 M 121 27 C 121 27.733, 121.300 28.033, 121.667 27.667 C 122.033 27.300, 122.033 26.700, 121.667 26.333 C 121.300 25.967, 121 26.267, 121 27 M 126 27.933 C 126 28.446, 126.907 29.153, 128.015 29.505 C 129.123 29.856, 129.817 30.487, 129.559 30.905 C 129.300 31.324, 129.770 31.667, 130.604 31.667 C 131.673 31.667, 131.378 30.978, 129.604 29.333 C 126.888 26.815, 126 26.470, 126 27.933 M 44.730 32.075 C 45.331 34.373, 45.609 34.461, 46.330 32.583 C 46.629 31.803, 46.278 30.937, 45.550 30.658 C 44.646 30.311, 44.386 30.761, 44.730 32.075 M 61.564 31.707 C 61.022 33.132, 61.136 33.247, 62.124 32.267 C 62.808 31.588, 63.115 30.781, 62.807 30.474 C 62.499 30.166, 61.940 30.721, 61.564 31.707 M 134.459 31.067 C 134.096 31.653, 134.014 32.348, 134.276 32.610 C 134.538 32.872, 135.019 32.392, 135.345 31.543 C 136.021 29.781, 135.445 29.471, 134.459 31.067 M 41 32 C 40.099 32.582, 39.975 32.975, 40.691 32.985 C 41.346 32.993, 42.160 32.550, 42.500 32 C 43.267 30.758, 42.921 30.758, 41 32 M 138.166 32.876 C 137.092 33.557, 137.141 33.840, 138.416 34.329 C 139.418 34.714, 140 34.398, 140 33.469 C 140 31.769, 139.942 31.750, 138.166 32.876 M 52.603 34.167 C 53.096 34.965, 51.521 35.431, 49.581 35.062 C 49.075 34.966, 49.235 35.578, 49.936 36.423 C 50.889 37.571, 51.688 37.702, 53.105 36.944 C 54.147 36.386, 55 35.510, 55 34.996 C 55 34.483, 55.629 34.304, 56.399 34.600 C 57.168 34.895, 58.048 34.731, 58.355 34.235 C 58.661 33.739, 57.377 33.333, 55.500 33.333 C 53.623 33.333, 52.320 33.708, 52.603 34.167 M 121.405 34.155 C 120.962 34.870, 121.130 35.038, 121.845 34.595 C 122.480 34.203, 123 33.684, 123 33.441 C 123 32.607, 122.117 33.002, 121.405 34.155 M 126.261 35.185 C 126.140 36.790, 126.378 36.931, 127.556 35.953 C 129.323 34.487, 129.332 34.342, 127.705 33.717 C 126.937 33.422, 126.349 34.021, 126.261 35.185 M 141.500 34 C 141.840 34.550, 142.343 35, 142.618 35 C 142.893 35, 142.840 34.550, 142.500 34 C 142.160 33.450, 141.657 33, 141.382 33 C 141.107 33, 141.160 33.450, 141.500 34 M 144 35 C 144 35.733, 144.300 36.033, 144.667 35.667 C 145.033 35.300, 145.033 34.700, 144.667 34.333 C 144.300 33.967, 144 34.267, 144 35 M 33.611 35.820 C 33.287 36.344, 33.656 37.299, 34.431 37.943 C 35.542 38.865, 35.792 38.789, 35.615 37.585 C 35.312 35.520, 34.331 34.656, 33.611 35.820 M 46.903 35 C 46.303 36.897, 46.412 40, 47.078 40 C 48.580 40, 49.112 38.023, 48.085 36.258 C 47.521 35.291, 46.990 34.725, 46.903 35 M 128.872 36.750 C 127.629 38.336, 127.664 38.371, 129.250 37.128 C 130.916 35.821, 131.445 35, 130.622 35 C 130.415 35, 129.627 35.788, 128.872 36.750 M 131.602 36.596 C 130.965 38.255, 131.603 40, 132.846 40 C 133.877 40, 134.045 36.146, 133.041 35.525 C 132.584 35.243, 131.936 35.725, 131.602 36.596 M 146.079 37.583 C 146.127 38.748, 146.364 38.985, 146.683 38.188 C 146.972 37.466, 146.936 36.603, 146.604 36.271 C 146.272 35.939, 146.036 36.529, 146.079 37.583 M 44 38 C 44 38.733, 44.300 39.033, 44.667 38.667 C 45.033 38.300, 45.033 37.700, 44.667 37.333 C 44.300 36.967, 44 37.267, 44 38 M 135 38 C 135 38.733, 135.300 39.033, 135.667 38.667 C 136.033 38.300, 136.033 37.700, 135.667 37.333 C 135.300 36.967, 135 37.267, 135 38 M 144 38 C 144 38.733, 144.300 39.033, 144.667 38.667 C 145.033 38.300, 145.033 37.700, 144.667 37.333 C 144.300 36.967, 144 37.267, 144 38 M 31.564 41.707 C 31.022 43.132, 31.136 43.247, 32.124 42.267 C 32.808 41.588, 33.115 40.781, 32.807 40.474 C 32.499 40.166, 31.940 40.721, 31.564 41.707 M 49 42.653 C 49 43.459, 49.480 43.821, 50.067 43.458 C 50.654 43.096, 51.380 43.739, 51.681 44.888 C 51.982 46.037, 52.626 46.731, 53.114 46.430 C 54.757 45.414, 54.001 43.508, 51.492 42.344 C 49.444 41.394, 49 41.449, 49 42.653 M 131 41.893 C 131 42.384, 131.652 43.036, 132.449 43.342 C 133.418 43.714, 133.714 43.418, 133.342 42.449 C 132.735 40.867, 131 40.455, 131 41.893 M 147.500 42 C 147.840 42.550, 148.343 43, 148.618 43 C 148.893 43, 148.840 42.550, 148.500 42 C 148.160 41.450, 147.657 41, 147.382 41 C 147.107 41, 147.160 41.450, 147.500 42 M 126 44.441 C 126 46.753, 127.724 47.165, 128.293 44.989 C 128.630 43.700, 128.318 43, 127.406 43 C 126.633 43, 126 43.648, 126 44.441 M 23.075 45.895 C 22.324 46.938, 21.808 48.158, 21.929 48.606 C 22.049 49.055, 21.327 49.745, 20.324 50.141 C 18.610 50.816, 18.607 50.864, 20.281 50.930 C 21.261 50.968, 22.321 50.328, 22.636 49.506 C 22.952 48.684, 23.500 48.191, 23.855 48.410 C 24.210 48.629, 24.565 47.726, 24.644 46.404 C 24.818 43.511, 24.798 43.505, 23.075 45.895 M 55.032 45.250 C 55.014 46.212, 55.477 47, 56.059 47 C 56.641 47, 56.840 47.450, 56.500 48 C 55.462 49.680, 56.669 49.112, 58.095 47.250 C 58.831 46.288, 59.043 45.831, 58.566 46.234 C 58.088 46.638, 57.105 46.188, 56.381 45.234 C 55.132 43.590, 55.062 43.591, 55.032 45.250 M 123.512 45.244 C 123.115 46.204, 122.388 46.740, 121.895 46.435 C 120.351 45.481, 120.921 46.691, 122.692 48.128 C 123.623 48.882, 124.070 48.976, 123.686 48.335 C 123.302 47.695, 123.508 46.997, 124.144 46.785 C 124.780 46.573, 125.060 45.748, 124.766 44.950 C 124.334 43.774, 124.096 43.830, 123.512 45.244 M 26 46 C 26 46.550, 26.477 47, 27.059 47 C 27.641 47, 27.840 46.550, 27.500 46 C 27.160 45.450, 26.684 45, 26.441 45 C 26.198 45, 26 45.450, 26 46 M 42 46.441 C 42 47.234, 42.450 48.160, 43 48.500 C 43.550 48.840, 44 48.191, 44 47.059 C 44 45.927, 43.550 45, 43 45 C 42.450 45, 42 45.648, 42 46.441 M 135 45.645 C 133.044 46.184, 130.724 50.864, 132.545 50.596 C 133.234 50.495, 134.406 49.908, 135.149 49.291 C 136.501 48.169, 137.022 48, 139.122 48 C 139.898 48, 139.860 47.536, 139 46.500 C 137.726 44.964, 137.583 44.934, 135 45.645 M 45.539 46.937 C 44.409 48.766, 46.713 50.687, 50.153 50.785 L 53.313 50.875 50.429 49.379 C 48.843 48.556, 47.254 47.411, 46.898 46.835 C 46.457 46.122, 46.022 46.155, 45.539 46.937 M 136.333 46.667 C 136.700 47.033, 137.300 47.033, 137.667 46.667 C 138.033 46.300, 137.733 46, 137 46 C 136.267 46, 135.967 46.300, 136.333 46.667 M 60 47.430 C 60 47.705, 60.900 48.411, 62 49 C 63.100 49.589, 64 49.845, 64 49.570 C 64 49.295, 63.100 48.589, 62 48 C 60.900 47.411, 60 47.155, 60 47.430 M 117.441 48.555 C 115.577 50.049, 115.589 50.067, 117.750 49.020 C 118.987 48.420, 120 47.720, 120 47.465 C 120 46.700, 119.481 46.921, 117.441 48.555 M 155.405 48.155 C 154.962 48.870, 155.130 49.038, 155.845 48.595 C 156.998 47.883, 157.393 47, 156.559 47 C 156.316 47, 155.797 47.520, 155.405 48.155 M 158 49.847 C 158 52.308, 158.336 52.725, 159.976 52.296 C 161.544 51.886, 161.750 51.401, 160.971 49.945 C 159.273 46.772, 158 46.730, 158 49.847 M 32.334 49.645 C 32.694 50.275, 32.216 51.087, 31.272 51.449 C 30.057 51.915, 29.904 52.322, 30.747 52.844 C 31.610 53.377, 31.964 60.195, 32.034 77.623 C 32.115 97.797, 32.362 101.667, 33.565 101.667 C 34.354 101.667, 35 101.292, 35 100.833 C 35 100.375, 34.536 100, 33.969 100 C 33.285 100, 32.970 91.536, 33.035 74.899 C 33.088 61.094, 32.805 49.506, 32.405 49.149 C 32.006 48.792, 31.974 49.015, 32.334 49.645 M 146.968 49.583 C 146.950 50.087, 146.964 61.637, 146.999 75.250 C 147.041 91.624, 146.713 100, 146.031 100 C 145.464 100, 145 100.546, 145 101.214 C 145 102.051, 145.449 101.974, 146.447 100.964 C 147.621 99.776, 147.929 94.820, 148.077 74.713 C 148.178 61.081, 147.977 49.643, 147.630 49.297 C 147.284 48.950, 146.986 49.079, 146.968 49.583 M 27 51.108 C 27 52.561, 28.789 52.992, 29.300 51.661 C 29.580 50.931, 29.177 50.333, 28.405 50.333 C 27.632 50.333, 27 50.682, 27 51.108 M 127 51 C 127 51.550, 127.477 52, 128.059 52 C 128.641 52, 128.840 51.550, 128.500 51 C 128.160 50.450, 127.684 50, 127.441 50 C 127.198 50, 127 50.450, 127 51 M 151 51.132 C 151 51.755, 151.937 53.780, 153.082 55.632 C 155.297 59.216, 156.767 60.302, 155.043 57.081 C 154.478 56.025, 154.350 54.974, 154.758 54.745 C 155.166 54.515, 154.975 54.451, 154.333 54.601 C 152.992 54.914, 151.717 52.267, 152.556 50.910 C 152.865 50.409, 152.641 50, 152.059 50 C 151.477 50, 151 50.509, 151 51.132 M 17.919 52.128 C 17.204 55.405, 17.645 58.022, 18.871 57.782 C 20.812 57.402, 21.146 54.366, 19.405 52.921 C 18.632 52.280, 17.963 51.923, 17.919 52.128 M 24.079 53.583 C 24.127 54.748, 24.364 54.985, 24.683 54.188 C 24.972 53.466, 24.936 52.603, 24.604 52.271 C 24.272 51.939, 24.036 52.529, 24.079 53.583 M 59.079 53.816 C 58.945 56.041, 61.037 59.095, 62.202 58.375 C 62.808 58.001, 63.910 58.524, 64.652 59.538 C 65.393 60.553, 66 60.901, 66 60.314 C 66 58.772, 63.258 56.723, 62.129 57.420 C 61.602 57.746, 60.718 56.772, 60.164 55.256 C 59.611 53.740, 59.122 53.092, 59.079 53.816 M 66.333 53.667 C 66.700 54.033, 67.300 54.033, 67.667 53.667 C 68.033 53.300, 67.733 53, 67 53 C 66.267 53, 65.967 53.300, 66.333 53.667 M 71.333 53.667 C 71.700 54.033, 72.300 54.033, 72.667 53.667 C 73.033 53.300, 72.733 53, 72 53 C 71.267 53, 70.967 53.300, 71.333 53.667 M 107.333 53.667 C 107.700 54.033, 108.300 54.033, 108.667 53.667 C 109.033 53.300, 108.733 53, 108 53 C 107.267 53, 106.967 53.300, 107.333 53.667 M 120.357 55.538 C 120.476 57.606, 120.688 57.776, 121.599 56.532 C 122.203 55.706, 122.952 55.286, 123.263 55.597 C 123.574 55.908, 124.806 55.639, 126 55 C 127.194 54.361, 127.919 53.585, 127.610 53.276 C 127.301 52.968, 126.391 53.260, 125.588 53.927 C 124.535 54.801, 123.582 54.847, 122.171 54.092 C 120.461 53.176, 120.232 53.359, 120.357 55.538 M 74 56 C 74 56.550, 74.477 57, 75.059 57 C 75.641 57, 75.859 57.419, 75.543 57.931 C 75.226 58.443, 75.494 59.187, 76.138 59.585 C 76.869 60.037, 77.041 59.876, 76.595 59.155 C 76.177 58.478, 76.503 58, 77.382 58 C 78.207 58, 79.160 58.450, 79.500 59 C 79.840 59.550, 80.642 60, 81.282 60 C 81.921 60, 81.332 59.216, 79.973 58.258 C 78.613 57.300, 77.162 56.625, 76.750 56.758 C 76.338 56.891, 76 56.550, 76 56 C 76 55.450, 75.550 55, 75 55 C 74.450 55, 74 55.450, 74 56 M 104 56 C 104 56.550, 103.662 56.921, 103.250 56.825 C 102.406 56.629, 96.771 59.138, 96 60.053 C 95.725 60.379, 94.684 60.947, 93.687 61.316 C 91.266 62.210, 92.325 63.720, 95.208 63.485 C 96.736 63.360, 97.402 62.747, 97.206 61.649 C 96.857 59.692, 98.098 59.506, 99.871 61.250 C 100.571 61.938, 101.057 62.050, 100.953 61.500 C 100.523 59.234, 101.089 58, 102.559 58 C 103.483 58, 103.827 58.470, 103.405 59.155 C 102.959 59.876, 103.131 60.037, 103.862 59.585 C 104.506 59.187, 104.774 58.443, 104.457 57.931 C 104.141 57.419, 104.359 57, 104.941 57 C 105.523 57, 106 56.550, 106 56 C 106 55.450, 105.550 55, 105 55 C 104.450 55, 104 55.450, 104 56 M 24.564 57.707 C 24.022 59.132, 24.136 59.247, 25.124 58.267 C 25.808 57.588, 26.115 56.781, 25.807 56.474 C 25.499 56.166, 24.940 56.721, 24.564 57.707 M 159.500 57 C 159.840 57.550, 160.343 58, 160.618 58 C 160.893 58, 160.840 57.550, 160.500 57 C 160.160 56.450, 159.657 56, 159.382 56 C 159.107 56, 159.160 56.450, 159.500 57 M 116 57.393 C 116 57.609, 116.698 58.054, 117.552 58.382 C 118.442 58.723, 118.843 58.555, 118.493 57.989 C 117.906 57.038, 116 56.583, 116 57.393 M 113.813 59.683 C 114.534 59.972, 115.397 59.936, 115.729 59.604 C 116.061 59.272, 115.471 59.036, 114.417 59.079 C 113.252 59.127, 113.015 59.364, 113.813 59.683 M 83.813 60.683 C 84.534 60.972, 85.397 60.936, 85.729 60.604 C 86.061 60.272, 85.471 60.036, 84.417 60.079 C 83.252 60.127, 83.015 60.364, 83.813 60.683 M 109.553 60.915 C 109.231 61.436, 109.394 62.125, 109.915 62.447 C 110.436 62.769, 111.125 62.606, 111.447 62.085 C 111.769 61.564, 111.606 60.875, 111.085 60.553 C 110.564 60.231, 109.875 60.394, 109.553 60.915 M 68.632 62.214 C 68.900 62.646, 69.766 63, 70.559 63 C 71.352 63, 72 62.646, 72 62.214 C 72 61.782, 71.133 61.429, 70.073 61.429 C 69.014 61.429, 68.365 61.782, 68.632 62.214 M 74 63 C 74 63.733, 74.300 64.033, 74.667 63.667 C 75.033 63.300, 75.033 62.700, 74.667 62.333 C 74.300 61.967, 74 62.267, 74 63 M 85.500 63 C 85.840 63.550, 86.343 64, 86.618 64 C 86.893 64, 86.840 63.550, 86.500 63 C 86.160 62.450, 85.657 62, 85.382 62 C 85.107 62, 85.160 62.450, 85.500 63 M 89.333 62.667 C 89.700 63.033, 90.300 63.033, 90.667 62.667 C 91.033 62.300, 90.733 62, 90 62 C 89.267 62, 88.967 62.300, 89.333 62.667 M 104.310 63.431 C 103.656 64.177, 103.393 65.060, 103.727 65.393 C 104.060 65.727, 103.583 66, 102.667 66 C 101.750 66, 101 66.440, 101 66.979 C 101 67.574, 101.979 67.511, 103.500 66.818 C 104.875 66.192, 106 64.851, 106 63.839 C 106 61.675, 105.878 61.646, 104.310 63.431 M 76.333 65.456 C 76.333 66.257, 76.716 66.676, 77.183 66.387 C 77.650 66.098, 77.774 65.443, 77.457 64.931 C 76.649 63.623, 76.333 63.770, 76.333 65.456 M 78.559 65.706 C 78.226 66.575, 78.250 67.559, 78.613 67.893 C 78.977 68.227, 79.476 67.935, 79.722 67.244 C 79.969 66.553, 80.582 66.242, 81.085 66.553 C 81.588 66.864, 82 66.690, 82 66.166 C 82 64.460, 79.182 64.083, 78.559 65.706 M 98.009 68.489 C 97.329 69.308, 96.305 69.688, 95.732 69.334 C 95.134 68.965, 94.989 69.174, 95.392 69.825 C 95.909 70.662, 96.604 70.640, 98.046 69.739 C 99.121 69.068, 100 68.177, 100 67.759 C 100 66.612, 99.378 66.840, 98.009 68.489 M 83.530 68.951 C 83.174 69.528, 83.021 70.033, 83.191 70.074 C 85.075 70.527, 88.280 70.976, 87.939 70.740 C 87.698 70.572, 86.753 69.865, 85.839 69.168 C 84.716 68.313, 83.968 68.243, 83.530 68.951 M 38.550 89.919 C 38.281 90.354, 39.119 90.509, 40.413 90.261 C 41.707 90.014, 43.070 90.304, 43.442 90.906 C 44.333 92.348, 47.691 92.309, 48.595 90.845 C 49.038 90.130, 48.870 89.962, 48.155 90.405 C 47.520 90.797, 47 90.695, 47 90.177 C 47 89.036, 39.242 88.799, 38.550 89.919 M 50 89.728 C 50 90.167, 51.013 90.970, 52.250 91.513 C 53.487 92.056, 54.500 93.132, 54.500 93.905 C 54.500 94.677, 55.288 95.425, 56.250 95.566 C 58.536 95.902, 58.470 94.847, 56.079 92.800 C 53.377 90.486, 50 88.779, 50 89.728 M 135 90.038 C 135 90.375, 136.530 90.616, 138.401 90.575 C 140.271 90.534, 141.591 90.158, 141.335 89.739 C 140.793 88.854, 135 89.127, 135 90.038 M 127.109 90.709 C 125.263 91.441, 122 94.267, 122 95.134 C 122 95.716, 124.981 95.571, 125.750 94.952 C 125.888 94.841, 126.563 94.684, 127.250 94.603 C 127.938 94.521, 128.347 93.589, 128.161 92.531 C 127.857 90.805, 128.005 90.756, 129.603 92.054 C 130.583 92.849, 131.070 92.976, 130.686 92.335 C 130.302 91.695, 130.553 90.943, 131.244 90.664 C 131.935 90.386, 131.600 90.158, 130.500 90.158 C 129.400 90.158, 127.874 90.406, 127.109 90.709 M 40 92 C 40 92.733, 40.300 93.033, 40.667 92.667 C 41.033 92.300, 41.033 91.700, 40.667 91.333 C 40.300 90.967, 40 91.267, 40 92 M 139 92 C 139 92.733, 139.300 93.033, 139.667 92.667 C 140.033 92.300, 140.033 91.700, 139.667 91.333 C 139.300 90.967, 139 91.267, 139 92 M 51.500 94 C 51.840 94.550, 52.343 95, 52.618 95 C 52.893 95, 52.840 94.550, 52.500 94 C 52.160 93.450, 51.657 93, 51.382 93 C 51.107 93, 51.160 93.450, 51.500 94 M 134.456 95.071 C 134.081 95.678, 134.341 96.698, 135.034 97.337 C 135.991 98.221, 136.137 98.221, 135.640 97.335 C 135.281 96.695, 135.531 95.990, 136.195 95.768 C 137.075 95.475, 137.095 95.177, 136.270 94.667 C 135.647 94.282, 134.831 94.464, 134.456 95.071 M 131.315 96.378 C 131.606 97.136, 131.429 98.261, 130.922 98.878 C 130.275 99.666, 130.355 99.705, 131.190 99.010 C 132.715 97.741, 133.135 95, 131.805 95 C 131.244 95, 131.024 95.620, 131.315 96.378 M 39 98.500 C 39 99.530, 39.655 100.020, 40.750 99.810 C 42.858 99.404, 42.725 97.629, 40.553 97.177 C 39.647 96.988, 39 97.539, 39 98.500 M 47 97.378 C 47 97.585, 47.788 98.373, 48.750 99.128 C 50.336 100.371, 50.371 100.336, 49.128 98.750 C 47.821 97.084, 47 96.555, 47 97.378 M 58.179 98.915 C 59.761 101.448, 61.271 101.647, 60.812 99.261 C 60.628 98.305, 59.667 97.367, 58.677 97.176 C 57.089 96.871, 57.031 97.076, 58.179 98.915 M 118.977 99.560 C 118.442 100.968, 117.613 101.879, 117.136 101.584 C 116.658 101.289, 115.530 101.862, 114.629 102.857 C 113.122 104.523, 113.121 104.667, 114.617 104.667 C 116.145 104.667, 118.725 102.538, 121.872 98.682 C 123.056 97.231, 123.018 97, 121.598 97 C 120.692 97, 119.512 98.152, 118.977 99.560 M 137.543 97.931 C 137.226 98.443, 137.494 99.187, 138.138 99.585 C 138.923 100.070, 139.039 99.872, 138.490 98.985 C 137.896 98.023, 138.128 97.835, 139.336 98.299 C 140.251 98.650, 141 98.501, 141 97.969 C 141 96.731, 138.302 96.702, 137.543 97.931 M 52.226 102.579 C 53.176 103.570, 54.168 104.166, 54.431 103.903 C 54.694 103.640, 53.917 102.829, 52.705 102.100 C 50.598 100.835, 50.577 100.857, 52.226 102.579 M 62.015 101.750 C 62.047 103.321, 63.568 104.697, 65.254 104.682 C 66.892 104.668, 66.898 104.545, 65.349 102.833 C 63.648 100.954, 61.988 100.414, 62.015 101.750 M 126.559 102.532 C 125.491 103.339, 125.099 104, 125.686 104 C 126.274 104, 127.315 103.325, 128 102.500 C 129.557 100.624, 129.067 100.634, 126.559 102.532 M 138 101.430 C 138 101.705, 138.900 102.411, 140 103 C 141.100 103.589, 142 103.845, 142 103.570 C 142 103.295, 141.100 102.589, 140 102 C 138.900 101.411, 138 101.155, 138 101.430 M 160 103.500 C 160 104.325, 160.177 105, 160.393 105 C 160.609 105, 161.045 104.325, 161.362 103.500 C 161.678 102.675, 161.501 102, 160.969 102 C 160.436 102, 160 102.675, 160 103.500 M 38.500 104 C 38.840 104.550, 39.343 105, 39.618 105 C 39.893 105, 39.840 104.550, 39.500 104 C 39.160 103.450, 38.657 103, 38.382 103 C 38.107 103, 38.160 103.450, 38.500 104 M 56.564 104.293 C 56.940 105.279, 57.499 105.834, 57.807 105.526 C 58.115 105.219, 57.808 104.412, 57.124 103.733 C 56.136 102.753, 56.022 102.868, 56.564 104.293 M 122.459 104.067 C 122.096 104.653, 122.014 105.348, 122.276 105.610 C 122.538 105.872, 123.019 105.392, 123.345 104.543 C 124.021 102.781, 123.445 102.471, 122.459 104.067 M 18.333 104.667 C 18.700 105.033, 19.300 105.033, 19.667 104.667 C 20.033 104.300, 19.733 104, 19 104 C 18.267 104, 17.967 104.300, 18.333 104.667 M 145 105.635 C 145 106.382, 145.640 106.692, 146.500 106.362 C 147.325 106.045, 148 105.459, 148 105.060 C 148 104.660, 147.325 104.333, 146.500 104.333 C 145.675 104.333, 145 104.919, 145 105.635 M 18.570 106.887 C 18.269 107.374, 18.692 108.329, 19.511 109.009 C 20.545 109.867, 21 109.902, 21 109.122 C 21 108.505, 20.523 108, 19.941 108 C 19.359 108, 19.160 107.550, 19.500 107 C 19.840 106.450, 19.893 106, 19.618 106 C 19.343 106, 18.871 106.399, 18.570 106.887 M 58.303 106.792 C 57.513 107.294, 57.423 108.055, 58.037 109.026 C 58.550 109.837, 59.011 110.275, 59.061 110 C 59.112 109.725, 59.304 108.713, 59.488 107.750 C 59.870 105.753, 59.900 105.777, 58.303 106.792 M 65.951 107.441 C 66.608 108.233, 67.730 108.657, 68.444 108.383 C 69.158 108.109, 70.011 108.586, 70.340 109.443 C 70.668 110.299, 71.514 110.986, 72.219 110.968 C 74.051 110.923, 68.208 106, 66.322 106 C 65.071 106, 64.996 106.291, 65.951 107.441 M 109.455 108.455 C 106.970 110.939, 106.261 113, 107.892 113 C 108.382 113, 109.076 111.834, 109.433 110.409 C 109.849 108.752, 110.583 108.010, 111.469 108.350 C 112.231 108.642, 113.392 108.233, 114.049 107.441 C 116.193 104.857, 112.162 105.747, 109.455 108.455 M 120.403 107.540 C 120.720 109.697, 121.691 110.248, 122.313 108.626 C 122.622 107.823, 122.272 106.934, 121.536 106.652 C 120.770 106.358, 120.285 106.738, 120.403 107.540 M 154.333 106.667 C 154.700 107.033, 155.300 107.033, 155.667 106.667 C 156.033 106.300, 155.733 106, 155 106 C 154.267 106, 153.967 106.300, 154.333 106.667 M 32.682 108.613 C 32.975 109.376, 33.563 110, 33.990 110 C 34.417 110, 35.002 110.900, 35.290 112 C 35.577 113.100, 36.360 114, 37.029 114 C 37.933 114, 37.959 113.656, 37.131 112.658 C 36.519 111.920, 36.313 111.020, 36.675 110.658 C 37.037 110.296, 36.782 110, 36.108 110 C 35.434 110, 35.128 109.601, 35.430 109.114 C 35.731 108.626, 35.116 108.002, 34.064 107.727 C 32.724 107.376, 32.309 107.642, 32.682 108.613 M 42.776 108.176 C 43.593 108.993, 43.637 109.732, 42.920 110.596 C 42.166 111.505, 42.314 111.777, 43.472 111.607 C 44.343 111.479, 44.985 110.953, 44.900 110.437 C 44.545 108.286, 43.719 107, 42.693 107 C 41.949 107, 41.976 107.376, 42.776 108.176 M 135.734 108.250 C 134.800 110.686, 134.963 111.377, 136.528 111.607 C 137.686 111.777, 137.834 111.505, 137.080 110.596 C 136.363 109.732, 136.407 108.993, 137.224 108.176 C 138.024 107.376, 138.051 107, 137.307 107 C 136.706 107, 135.998 107.563, 135.734 108.250 M 61 110.594 C 61 112.346, 61.649 113.357, 63 113.710 C 64.100 113.998, 65 114.561, 65 114.961 C 65 115.878, 69.362 121, 70.143 121 C 70.462 121, 70.518 119.932, 70.269 118.627 C 70.010 117.271, 69.155 116.306, 68.275 116.377 C 67.428 116.444, 66.601 115.654, 66.437 114.619 C 65.968 111.664, 64.093 110.232, 63.003 111.996 C 62.288 113.152, 62.124 113.002, 62.252 111.307 C 62.342 110.114, 62.841 109.402, 63.362 109.724 C 63.883 110.046, 63.988 109.789, 63.595 109.155 C 62.356 107.149, 61 107.901, 61 110.594 M 116.405 109.155 C 116.012 109.789, 116.117 110.046, 116.638 109.724 C 117.159 109.402, 117.658 110.114, 117.748 111.307 C 117.876 113.002, 117.712 113.152, 116.997 111.996 C 115.987 110.362, 114.033 111.602, 113.653 114.119 C 113.538 114.879, 113.092 116.063, 112.663 116.750 C 112.233 117.438, 112.328 118, 112.874 118 C 113.419 118, 114.135 117.149, 114.466 116.108 C 114.796 115.067, 115.951 113.984, 117.033 113.702 C 118.351 113.357, 119 112.332, 119 110.594 C 119 107.901, 117.644 107.149, 116.405 109.155 M 144.557 109.582 C 143.491 110.362, 142.984 111, 143.431 111 C 143.879 111, 143.685 111.675, 143 112.500 C 142.103 113.581, 142.078 114, 142.909 114 C 143.544 114, 144.353 113.213, 144.708 112.250 C 145.064 111.287, 145.824 110.187, 146.398 109.804 C 146.972 109.422, 147.229 108.896, 146.969 108.636 C 146.710 108.376, 145.624 108.802, 144.557 109.582 M 154.333 108.667 C 154.700 109.033, 155.300 109.033, 155.667 108.667 C 156.033 108.300, 155.733 108, 155 108 C 154.267 108, 153.967 108.300, 154.333 108.667 M 159.356 110.341 C 159.453 111.916, 160.003 112.550, 161.036 112.280 C 163.146 111.729, 163.020 108, 160.892 108 C 159.756 108, 159.258 108.758, 159.356 110.341 M 17.570 110.886 C 17.269 111.374, 17.943 112.013, 19.068 112.308 C 20.746 112.746, 20.902 112.587, 19.935 111.421 C 18.554 109.757, 18.303 109.701, 17.570 110.886 M 38.031 110.500 C 38.031 111.050, 38.467 112.175, 39 113 C 39.533 113.825, 39.969 114.050, 39.969 113.500 C 39.969 112.950, 39.533 111.825, 39 111 C 38.467 110.175, 38.031 109.950, 38.031 110.500 M 140.624 111.539 C 139.659 114.053, 139.943 114.702, 141.122 112.675 C 141.706 111.671, 141.973 110.639, 141.715 110.382 C 141.458 110.124, 140.966 110.645, 140.624 111.539 M 71.333 112.667 C 71.700 113.033, 72.300 113.033, 72.667 112.667 C 73.033 112.300, 72.733 112, 72 112 C 71.267 112, 70.967 112.300, 71.333 112.667 M 17.691 113.643 C 17.347 113.986, 17.945 115.385, 19.019 116.751 C 20.094 118.117, 20.747 119.601, 20.470 120.048 C 19.673 121.338, 21.451 121.960, 23.048 120.949 C 24.044 120.319, 24.108 120.026, 23.250 120.015 C 22.563 120.007, 22 119.325, 22 118.500 C 22 117.675, 21.523 117, 20.941 117 C 20.359 117, 20.129 116.601, 20.430 116.113 C 21.095 115.037, 18.572 112.761, 17.691 113.643 M 104.500 114 C 104.160 114.550, 104.246 115.032, 104.691 115.070 C 105.136 115.109, 104.600 115.527, 103.500 116 C 102.181 116.567, 102.011 116.878, 103 116.914 C 103.825 116.945, 105.175 116.533, 106 116 C 107.090 115.296, 107.142 115.026, 106.191 115.015 C 105.471 115.007, 105.160 114.550, 105.500 114 C 105.840 113.450, 105.893 113, 105.618 113 C 105.343 113, 104.840 113.450, 104.500 114 M 150 116.762 C 146.734 121.646, 146.604 122, 148.083 122 C 148.771 122, 149.032 121.699, 148.664 121.331 C 147.934 120.600, 150.809 117, 152.124 117 C 152.571 117, 152.684 117.787, 152.374 118.750 C 151.915 120.177, 152.001 120.232, 152.840 119.048 C 153.405 118.249, 153.646 117.237, 153.375 116.798 C 153.104 116.359, 153.344 116, 153.910 116 C 154.475 116, 154.678 115.325, 154.362 114.500 C 153.502 112.260, 152.751 112.649, 150 116.762 M 161.500 114 C 161.840 114.550, 162.343 115, 162.618 115 C 162.893 115, 162.840 114.550, 162.500 114 C 162.160 113.450, 161.657 113, 161.382 113 C 161.107 113, 161.160 113.450, 161.500 114 M 46.500 115 C 46.160 115.550, 46.332 116, 46.882 116 C 47.432 116, 48.160 115.550, 48.500 115 C 48.840 114.450, 48.668 114, 48.118 114 C 47.568 114, 46.840 114.450, 46.500 115 M 71 115 C 71 115.733, 71.300 116.033, 71.667 115.667 C 72.033 115.300, 72.033 114.700, 71.667 114.333 C 71.300 113.967, 71 114.267, 71 115 M 73.378 115.133 C 73.503 115.784, 74.612 116.470, 75.842 116.658 C 77.708 116.943, 77.865 116.770, 76.789 115.610 C 75.985 114.744, 75.264 114.598, 74.871 115.224 C 74.467 115.867, 74.046 115.818, 73.696 115.088 C 73.310 114.283, 73.217 114.297, 73.378 115.133 M 131.500 115 C 131.840 115.550, 132.568 116, 133.118 116 C 133.668 116, 133.840 115.550, 133.500 115 C 133.160 114.450, 132.432 114, 131.882 114 C 131.332 114, 131.160 114.450, 131.500 115 M 25.756 115.664 C 26.447 115.943, 26.814 116.491, 26.572 116.883 C 26.330 117.275, 26.595 118.249, 27.160 119.048 C 27.999 120.232, 28.085 120.177, 27.626 118.750 C 27.316 117.787, 27.429 117, 27.876 117 C 29.191 117, 32.066 120.600, 31.336 121.331 C 30.968 121.699, 31.192 122, 31.833 122 C 33.475 122, 33.307 121.334, 30.812 117.960 C 29.552 116.255, 27.749 115.033, 26.562 115.079 C 25.428 115.122, 25.065 115.386, 25.756 115.664 M 41.333 117.667 C 41.700 118.033, 42.300 118.033, 42.667 117.667 C 43.033 117.300, 42.733 117, 42 117 C 41.267 117, 40.967 117.300, 41.333 117.667 M 48 118 C 48 118.733, 48.300 119.033, 48.667 118.667 C 49.033 118.300, 49.033 117.700, 48.667 117.333 C 48.300 116.967, 48 117.267, 48 118 M 50.280 118.931 C 50.201 119.980, 50.736 121.069, 51.470 121.350 C 52.976 121.928, 52.927 119.527, 51.402 118.002 C 50.764 117.364, 50.374 117.688, 50.280 118.931 M 128.337 118.250 C 127.027 120.348, 127.123 121.890, 128.530 121.350 C 129.264 121.069, 129.798 119.975, 129.719 118.919 C 129.549 116.663, 129.380 116.581, 128.337 118.250 M 131 118 C 131 118.733, 131.300 119.033, 131.667 118.667 C 132.033 118.300, 132.033 117.700, 131.667 117.333 C 131.300 116.967, 131 117.267, 131 118 M 137.333 117.667 C 137.700 118.033, 138.300 118.033, 138.667 117.667 C 139.033 117.300, 138.733 117, 138 117 C 137.267 117, 136.967 117.300, 137.333 117.667 M 75.669 119.274 C 76.298 120.291, 80.927 122.299, 82.917 122.416 C 85.182 122.550, 85.286 120.308, 83.041 119.721 C 81.918 119.427, 81 119.622, 81 120.153 C 81 120.684, 80.543 120.835, 79.984 120.490 C 79.425 120.144, 79.224 119.446, 79.539 118.938 C 79.853 118.429, 78.993 118.106, 77.627 118.219 C 76.261 118.332, 75.380 118.807, 75.669 119.274 M 100.461 118.938 C 100.776 119.446, 100.575 120.144, 100.016 120.490 C 99.457 120.835, 99 120.684, 99 120.153 C 99 119.622, 98.082 119.427, 96.959 119.721 C 94.714 120.308, 94.818 122.550, 97.083 122.416 C 99.073 122.299, 103.702 120.291, 104.331 119.274 C 104.620 118.807, 103.739 118.332, 102.373 118.219 C 101.007 118.106, 100.147 118.429, 100.461 118.938 M 109 120 C 109 120.733, 109.300 121.033, 109.667 120.667 C 110.033 120.300, 110.033 119.700, 109.667 119.333 C 109.300 118.967, 109 119.267, 109 120 M 158.373 120.351 C 156.454 122.307, 153.548 124.538, 152.500 124.859 C 150.853 125.366, 150.982 125.573, 153.043 125.728 C 154.119 125.809, 155 125.427, 155 124.879 C 155 124.331, 155.461 124.167, 156.025 124.515 C 156.588 124.864, 156.926 124.697, 156.775 124.145 C 156.624 123.593, 157.399 122.471, 158.498 121.652 C 159.598 120.833, 160.273 119.947, 159.998 119.683 C 159.724 119.418, 158.993 119.719, 158.373 120.351 M 41.813 120.683 C 42.534 120.972, 43.397 120.936, 43.729 120.604 C 44.061 120.272, 43.471 120.036, 42.417 120.079 C 41.252 120.127, 41.015 120.364, 41.813 120.683 M 136.813 120.683 C 137.534 120.972, 138.397 120.936, 138.729 120.604 C 139.061 120.272, 138.471 120.036, 137.417 120.079 C 136.252 120.127, 136.015 120.364, 136.813 120.683 M 71.609 122.577 C 71.308 123.360, 71.525 124, 72.090 124 C 72.656 124, 72.840 124.450, 72.500 125 C 72.160 125.550, 72.385 126, 73 126 C 73.615 126, 73.869 126.403, 73.565 126.895 C 73.260 127.388, 73.676 128.046, 74.489 128.357 C 75.301 128.669, 75.718 129.571, 75.415 130.361 C 75.112 131.151, 75.421 132.142, 76.102 132.563 C 76.981 133.106, 77.143 132.814, 76.659 131.553 C 76.160 130.253, 76.369 129.927, 77.438 130.338 C 78.418 130.714, 78.715 130.421, 78.342 129.449 C 78.036 128.652, 77.047 127.993, 76.143 127.985 C 74.717 127.971, 74.698 127.841, 76 127 C 77.090 126.296, 77.142 126.026, 76.191 126.015 C 75.471 126.007, 75.062 125.662, 75.282 125.250 C 75.503 124.838, 74.889 123.747, 73.919 122.827 C 72.446 121.431, 72.064 121.390, 71.609 122.577 M 23.333 123.551 C 23.333 124.300, 23.708 124.680, 24.167 124.397 C 24.625 124.114, 25 124.331, 25 124.879 C 25 125.427, 25.869 125.810, 26.931 125.730 C 27.993 125.650, 28.637 125.221, 28.362 124.776 C 28.087 124.331, 27.443 124.226, 26.931 124.543 C 26.419 124.859, 26 124.690, 26 124.166 C 26 123.642, 25.400 122.984, 24.667 122.702 C 23.933 122.421, 23.333 122.803, 23.333 123.551 M 50.564 123.293 C 50.940 124.279, 51.499 124.834, 51.807 124.526 C 52.115 124.219, 51.808 123.412, 51.124 122.733 C 50.136 121.753, 50.022 121.868, 50.564 123.293 M 54 124.059 C 54 125.191, 54.430 125.852, 54.956 125.527 C 55.482 125.202, 55.659 124.275, 55.349 123.468 C 54.556 121.401, 54 121.644, 54 124.059 M 85.543 122.931 C 85.226 123.443, 85.425 124.144, 85.984 124.490 C 86.543 124.835, 87 124.416, 87 123.559 C 87 121.802, 86.400 121.544, 85.543 122.931 M 93 123.559 C 93 124.416, 93.457 124.835, 94.016 124.490 C 94.575 124.144, 94.774 123.443, 94.457 122.931 C 93.600 121.544, 93 121.802, 93 123.559 M 107.510 123.016 C 107.856 123.575, 108.557 123.774, 109.069 123.457 C 110.456 122.600, 110.198 122, 108.441 122 C 107.584 122, 107.165 122.457, 107.510 123.016 M 124.651 123.468 C 124.341 124.275, 124.518 125.202, 125.044 125.527 C 125.570 125.852, 126 125.191, 126 124.059 C 126 121.644, 125.444 121.401, 124.651 123.468 M 128.459 123.067 C 128.096 123.653, 128.014 124.348, 128.276 124.610 C 128.538 124.872, 129.019 124.392, 129.345 123.543 C 130.021 121.781, 129.445 121.471, 128.459 123.067 M 104.192 125.075 C 104.389 125.666, 104.977 126.150, 105.500 126.150 C 106.023 126.150, 106.611 125.666, 106.808 125.075 C 107.005 124.484, 106.417 124, 105.500 124 C 104.583 124, 103.995 124.484, 104.192 125.075 M 46.268 126.417 C 46.395 127.472, 47.175 128.518, 48 128.743 C 48.965 129.006, 49.107 128.857, 48.400 128.326 C 47.795 127.872, 47.015 126.825, 46.668 126 C 46.223 124.946, 46.104 125.070, 46.268 126.417 M 48.405 126.155 C 47.962 126.870, 48.130 127.038, 48.845 126.595 C 49.480 126.203, 50 125.684, 50 125.441 C 50 124.607, 49.117 125.002, 48.405 126.155 M 130.500 126 C 130.840 126.550, 131.343 127, 131.618 127 C 131.893 127, 131.840 126.550, 131.500 126 C 131.160 125.450, 130.657 125, 130.382 125 C 130.107 125, 130.160 125.450, 130.500 126 M 133 126.250 C 133 127.121, 132.438 128.060, 131.750 128.338 C 130.771 128.733, 130.778 128.859, 131.781 128.921 C 133.207 129.009, 134.599 126.266, 133.624 125.290 C 133.281 124.947, 133 125.379, 133 126.250 M 33.170 127 C 33.443 127.825, 34.517 128.665, 35.558 128.867 C 37.990 129.338, 39.937 132, 39.219 133.872 C 38.827 134.894, 39.059 135.081, 40 134.500 C 40.987 133.890, 41.167 134.123, 40.681 135.388 C 40.287 136.414, 40.423 136.856, 41.019 136.488 C 41.567 136.150, 42.740 136.598, 43.627 137.484 C 44.513 138.370, 45.482 138.851, 45.781 138.553 C 46.079 138.254, 45.013 136.884, 43.412 135.506 C 41.810 134.129, 40.924 133.002, 41.441 133.001 C 41.959 133.001, 41.509 132.339, 40.441 131.532 C 39.374 130.724, 38.870 130.049, 39.321 130.032 C 39.773 130.014, 39.414 129.271, 38.524 128.381 C 37.633 127.490, 36.630 127.037, 36.294 127.372 C 35.959 127.708, 35.007 127.424, 34.179 126.741 C 32.948 125.725, 32.765 125.772, 33.170 127 M 145.531 126.950 C 145.163 127.545, 144.439 127.772, 143.923 127.453 C 142.821 126.771, 140.615 128.908, 140.236 131.024 C 140.039 132.123, 140.323 132.053, 141.346 130.750 C 142.102 129.787, 143.432 129, 144.301 129 C 145.953 129, 147.564 127.231, 146.700 126.367 C 146.425 126.092, 145.899 126.354, 145.531 126.950 M 26.333 127.667 C 26.700 128.033, 27.300 128.033, 27.667 127.667 C 28.033 127.300, 27.733 127, 27 127 C 26.267 127, 25.967 127.300, 26.333 127.667 M 55.171 128.852 C 53.997 129.870, 53.352 131.019, 53.738 131.404 C 54.123 131.790, 53.668 131.810, 52.725 131.448 C 51.783 131.086, 51.303 130.318, 51.660 129.741 C 52.020 129.159, 51.834 128.985, 51.244 129.349 C 49.610 130.359, 50.444 133.301, 52.446 133.595 C 53.500 133.750, 54.429 133.075, 54.726 131.939 C 55.002 130.885, 55.634 130.274, 56.130 130.580 C 56.626 130.887, 56.728 131.670, 56.356 132.319 C 55.984 132.969, 56.051 133.163, 56.505 132.752 C 57.266 132.061, 58.217 127, 57.585 127 C 57.431 127, 56.345 127.833, 55.171 128.852 M 122.500 128 C 122.840 128.550, 123.343 129, 123.618 129 C 123.893 129, 123.840 128.550, 123.500 128 C 123.160 127.450, 122.657 127, 122.382 127 C 122.107 127, 122.160 127.450, 122.500 128 M 152.333 127.667 C 152.700 128.033, 153.300 128.033, 153.667 127.667 C 154.033 127.300, 153.733 127, 153 127 C 152.267 127, 151.967 127.300, 152.333 127.667 M 82.632 128.786 C 82.365 129.218, 83.014 129.571, 84.073 129.571 C 85.133 129.571, 86 129.218, 86 128.786 C 86 127.764, 83.264 127.764, 82.632 128.786 M 94 128.969 C 94 129.501, 94.675 129.678, 95.500 129.362 C 96.325 129.045, 97 128.609, 97 128.393 C 97 128.177, 96.325 128, 95.500 128 C 94.675 128, 94 128.436, 94 128.969 M 128.340 129.741 C 128.697 130.318, 128.293 131.057, 127.442 131.384 C 126.557 131.724, 126.157 131.555, 126.507 130.989 C 127.380 129.576, 125.815 129.825, 123.690 131.436 C 122.546 132.303, 122.270 133.049, 122.940 133.463 C 123.523 133.823, 124 133.586, 124 132.937 C 124 132.160, 124.428 132.075, 125.250 132.689 C 125.938 133.202, 127.132 133.595, 127.905 133.561 C 129.602 133.487, 130.252 130.274, 128.756 129.349 C 128.166 128.985, 127.980 129.159, 128.340 129.741 M 87 131 C 87 131.733, 87.300 132.033, 87.667 131.667 C 88.033 131.300, 88.033 130.700, 87.667 130.333 C 87.300 129.967, 87 130.267, 87 131 M 88.612 131.569 C 88.227 132.571, 87.329 132.922, 86.123 132.539 C 84.888 132.147, 84.015 132.517, 83.596 133.612 C 83.058 135.012, 83.201 135.078, 84.477 134.019 C 86.308 132.500, 86.514 134.015, 84.750 136.023 C 83.931 136.956, 84.190 136.905, 85.500 135.875 C 88.704 133.358, 90.830 132.973, 92.471 134.614 C 93.312 135.455, 94 135.675, 94 135.103 C 94 134.531, 94.787 134.316, 95.750 134.626 C 97.105 135.062, 97.189 134.967, 96.122 134.206 C 95.364 133.666, 95.060 132.611, 95.446 131.862 C 95.832 131.113, 95.440 131.374, 94.574 132.441 C 93.683 133.540, 93 133.840, 93 133.132 C 93 132.445, 92.550 132.160, 92 132.500 C 91.450 132.840, 91 132.416, 91 131.559 C 91 129.537, 89.389 129.544, 88.612 131.569 M 103 131 C 103 131.733, 103.300 132.033, 103.667 131.667 C 104.033 131.300, 104.033 130.700, 103.667 130.333 C 103.300 129.967, 103 130.267, 103 131 M 30.866 132.549 C 30.591 133.072, 31.334 134.502, 32.516 135.726 C 34.073 137.338, 34.667 137.545, 34.667 136.476 C 34.667 135.664, 34.179 134.993, 33.583 134.985 C 32.987 134.976, 33.175 134.484, 34 133.890 C 35.282 132.968, 35.255 132.890, 33.815 133.349 C 32.888 133.645, 31.958 133.373, 31.748 132.743 C 31.532 132.095, 31.149 132.011, 30.866 132.549 M 147 133 C 146.175 133.533, 145.950 133.983, 146.500 134 C 147.050 134.017, 146.825 134.467, 146 135 C 144.951 135.678, 144.885 135.974, 145.781 135.985 C 146.486 135.993, 147.321 135.328, 147.636 134.506 C 147.952 133.684, 148.682 133.303, 149.259 133.660 C 149.872 134.039, 150.012 133.829, 149.595 133.155 C 148.746 131.780, 148.876 131.788, 147 133 M 77.507 133.989 C 77.157 134.555, 77.558 134.723, 78.448 134.382 C 80.180 133.717, 80.497 133, 79.059 133 C 78.541 133, 77.843 133.445, 77.507 133.989 M 135.405 136.146 C 133.510 138.280, 133.512 138.285, 135.750 137.110 C 136.988 136.461, 138 135.495, 138 134.965 C 138 133.544, 137.521 133.762, 135.405 136.146 M 36.131 138.342 C 35.519 139.080, 35.313 139.980, 35.675 140.342 C 36.865 141.532, 37.571 141.032, 37.571 139 C 37.571 136.628, 37.558 136.622, 36.131 138.342 M 93.923 137.128 C 93.293 140.199, 93.303 141.069, 93.976 141.485 C 94.414 141.756, 95.280 141.368, 95.899 140.622 C 96.750 139.596, 96.656 138.960, 95.512 138.010 C 94.681 137.320, 93.966 136.923, 93.923 137.128 M 142.750 137.662 C 144.491 138.365, 144.316 140, 142.500 140 C 141.675 140, 141 140.675, 141 141.500 C 141 143.613, 142.292 143.363, 143.793 140.959 C 145.157 138.776, 144.638 136.950, 142.691 137.079 C 141.832 137.136, 141.849 137.299, 142.750 137.662 M 77.717 138.750 C 77.496 139.162, 77.602 140.625, 77.954 142 C 78.483 144.071, 78.705 144.205, 79.252 142.782 C 79.616 141.837, 79.475 140.794, 78.940 140.463 C 78.405 140.132, 78.226 139.443, 78.543 138.931 C 78.859 138.419, 78.893 138, 78.618 138 C 78.343 138, 77.937 138.338, 77.717 138.750 M 83.405 139.155 C 82.930 139.923, 83.134 140.035, 84.015 139.490 C 84.948 138.914, 85.170 139.115, 84.765 140.169 C 84.423 141.061, 84.759 141.667, 85.595 141.667 C 86.368 141.667, 87 140.842, 87 139.833 C 87 137.806, 84.527 137.339, 83.405 139.155 M 131.405 141.155 C 130.962 141.870, 131.130 142.038, 131.845 141.595 C 132.480 141.203, 133 140.684, 133 140.441 C 133 139.607, 132.117 140.002, 131.405 141.155 M 134.352 140.760 C 134.715 141.348, 134.447 142.057, 133.756 142.336 C 132.857 142.698, 132.839 142.865, 133.691 142.921 C 135.412 143.035, 136.239 141.265, 134.862 140.415 C 134.164 139.983, 133.958 140.123, 134.352 140.760 M 45.333 141.667 C 45.700 142.033, 46.300 142.033, 46.667 141.667 C 47.033 141.300, 46.733 141, 46 141 C 45.267 141, 44.967 141.300, 45.333 141.667 M 48 142 C 48 142.733, 48.300 143.033, 48.667 142.667 C 49.033 142.300, 49.033 141.700, 48.667 141.333 C 48.300 140.967, 48 141.267, 48 142 M 100 142.941 C 100 143.459, 100.450 144.160, 101 144.500 C 101.550 144.840, 102 144.416, 102 143.559 C 102 142.702, 101.550 142, 101 142 C 100.450 142, 100 142.423, 100 142.941 M 49.500 144 C 49.160 144.550, 49.246 145.007, 49.691 145.015 C 50.136 145.024, 49.900 145.411, 49.166 145.876 C 48.099 146.553, 48.159 146.847, 49.468 147.349 C 50.528 147.756, 50.860 147.583, 50.413 146.859 C 49.995 146.183, 50.271 145.932, 51.111 146.224 C 51.875 146.490, 52.369 147.561, 52.208 148.604 C 51.965 150.188, 52.087 150.253, 52.953 149 C 53.729 147.876, 53.499 147.092, 52.037 145.874 C 50.963 144.980, 50.366 143.967, 50.709 143.624 C 51.052 143.281, 51.060 143, 50.726 143 C 50.391 143, 49.840 143.450, 49.500 144 M 94.333 143.667 C 94.700 144.033, 95.300 144.033, 95.667 143.667 C 96.033 143.300, 95.733 143, 95 143 C 94.267 143, 93.967 143.300, 94.333 143.667 M 137.459 144.067 C 137.096 144.653, 137.014 145.348, 137.276 145.610 C 137.538 145.872, 138.019 145.392, 138.345 144.543 C 139.021 142.781, 138.445 142.471, 137.459 144.067 M 128.405 145.155 C 127.962 145.870, 128.130 146.038, 128.845 145.595 C 129.480 145.203, 130 145.359, 130 145.941 C 130 146.523, 130.436 147, 130.969 147 C 131.501 147, 131.678 146.325, 131.362 145.500 C 130.675 143.710, 129.390 143.560, 128.405 145.155 M 86 153.071 C 86 159.294, 85.616 161.527, 84.321 162.821 C 82.750 164.393, 82.751 164.521, 84.334 164.826 C 85.264 165.005, 85.767 165.567, 85.453 166.076 C 85.139 166.584, 85.278 167, 85.762 167 C 86.246 167, 86.747 162.050, 86.875 156 C 87.004 149.950, 86.859 145, 86.554 145 C 86.249 145, 86 148.632, 86 153.071 M 93.206 155.750 C 93.071 163.131, 93.364 167, 94.059 167 C 94.641 167, 94.840 166.550, 94.500 166 C 94.160 165.450, 94.696 164.986, 95.691 164.968 C 97.385 164.938, 97.391 164.854, 95.791 163.638 C 94.457 162.624, 94.009 160.388, 93.747 153.420 C 93.414 144.569, 93.410 144.588, 93.206 155.750 M 41 146.692 C 41 147.241, 41.900 148.505, 43 149.500 C 44.100 150.495, 45 151.084, 45 150.808 C 45 150.532, 44.100 149.268, 43 148 C 41.900 146.732, 41 146.143, 41 146.692 M 126.405 147.845 C 126.797 148.480, 126.641 149, 126.059 149 C 125.431 149, 125 151.444, 125 155 L 125 161 112.750 161.211 L 100.500 161.422 111 161.762 C 116.775 161.949, 122.963 161.833, 124.750 161.506 C 127.830 160.941, 128 160.681, 128 156.538 C 128 153.977, 127.482 151.958, 126.750 151.662 C 125.750 151.259, 125.750 151.142, 126.750 151.079 C 128.321 150.980, 128.389 148.359, 126.845 147.405 C 126.130 146.962, 125.962 147.130, 126.405 147.845 M 136.571 148.571 C 134.286 150.857, 134.643 151.633, 137 149.500 C 138.100 148.505, 139 147.535, 139 147.345 C 139 146.602, 138.073 147.070, 136.571 148.571 M 46.444 158.062 C 46.413 161.878, 46.638 164.998, 46.944 164.996 C 47.847 164.989, 48.111 155.475, 47.272 153.207 C 46.777 151.873, 46.480 153.617, 46.444 158.062 M 53.250 151.745 C 52.505 151.996, 52 153.933, 52 156.538 C 52 160.681, 52.170 160.941, 55.250 161.506 C 57.038 161.833, 63.225 161.949, 69 161.762 L 79.500 161.422 67.302 161.211 L 55.105 161 54.802 156.161 C 54.594 152.828, 54.111 151.454, 53.250 151.745 M 132.449 154.422 C 132.096 156.304, 132.118 159.259, 132.498 160.989 C 132.996 163.260, 132.727 164.644, 131.529 165.968 C 130.576 167.021, 130.279 168.054, 130.830 168.395 C 132.402 169.367, 133.273 165.948, 133.412 158.250 C 133.484 154.262, 133.442 151, 133.317 151 C 133.193 151, 132.802 152.540, 132.449 154.422 M 130.333 163.667 C 130.700 164.033, 131.300 164.033, 131.667 163.667 C 132.033 163.300, 131.733 163, 131 163 C 130.267 163, 129.967 163.300, 130.333 163.667 M 47.333 166.667 C 47.700 167.033, 48.300 167.033, 48.667 166.667 C 49.033 166.300, 48.733 166, 48 166 C 47.267 166, 46.967 166.300, 47.333 166.667 M 79.157 167.662 C 78.095 168.811, 75.341 169.050, 66 168.807 C 59.502 168.638, 54.395 168.838, 54.652 169.250 C 54.908 169.662, 61.729 169.948, 69.809 169.884 C 77.889 169.820, 83.707 169.561, 82.738 169.308 C 81.769 169.055, 81.213 168.464, 81.504 167.993 C 82.459 166.449, 80.531 166.177, 79.157 167.662 M 98.939 166 C 98.888 166.275, 98.696 167.287, 98.512 168.250 C 98.205 169.855, 99.310 169.984, 111.838 169.811 L 125.500 169.621 113.211 169.061 C 103.824 168.632, 100.698 168.146, 99.976 167 C 99.456 166.175, 98.989 165.725, 98.939 166 M 48.333 168.667 C 48.700 169.033, 49.300 169.033, 49.667 168.667 C 50.033 168.300, 49.733 168, 49 168 C 48.267 168, 47.967 168.300, 48.333 168.667 M 51.405 169.155 C 50.962 169.870, 51.130 170.038, 51.845 169.595 C 52.480 169.203, 53 168.684, 53 168.441 C 53 167.607, 52.117 168.002, 51.405 169.155 M 126 168.833 C 126 169.292, 126.655 169.667, 127.456 169.667 C 128.257 169.667, 128.680 169.292, 128.397 168.833 C 128.114 168.375, 127.459 168, 126.941 168 C 126.423 168, 126 168.375, 126 168.833" stroke="none" fill="#14b484" fill-rule="evenodd"/><path d="M 83.911 13.425 C 82.621 15.308, 81.209 16.629, 80.775 16.361 C 80.340 16.092, 79.281 16.576, 78.421 17.436 C 76.467 19.391, 74.883 19.468, 75.610 17.573 C 76.010 16.531, 75.597 16.293, 74.079 16.690 C 72.936 16.989, 72 17.706, 72 18.283 C 72 18.861, 71.707 19.040, 71.349 18.682 C 70.991 18.324, 70.057 18.812, 69.275 19.766 C 68.492 20.719, 68.164 20.893, 68.547 20.150 C 69.106 19.062, 68.830 19.021, 67.121 19.935 C 65.954 20.560, 65 21.306, 65 21.594 C 65 21.882, 65.450 21.840, 66 21.500 C 66.550 21.160, 67 21.359, 67 21.941 C 67 22.523, 66.122 23, 65.050 23 C 63.977 23, 62.694 23.724, 62.199 24.609 C 61.371 26.089, 61.248 26.089, 60.680 24.609 C 60.124 23.161, 59.718 23.193, 56.627 24.929 C 54.738 25.990, 53.029 26.696, 52.831 26.498 C 52.632 26.299, 51.352 27.018, 49.985 28.096 L 47.500 30.055 50.500 28.832 C 52.150 28.159, 54.063 27.192, 54.750 26.682 C 55.607 26.047, 56 26.229, 56 27.261 C 56 29.445, 48.543 31.688, 47.405 29.847 C 47.105 29.361, 45.570 29.882, 43.995 31.004 C 42.419 32.126, 40.763 32.938, 40.315 32.809 C 38.304 32.232, 35.132 35.092, 35.525 37.129 C 35.926 39.214, 35.898 39.219, 33.814 37.375 C 31.698 35.503, 31.696 35.505, 32.315 38.711 C 33 42.264, 32.677 42.657, 28.437 43.426 C 26.830 43.717, 25.361 44.418, 25.172 44.984 C 24.983 45.550, 24.373 45.730, 23.815 45.386 C 23.257 45.041, 23.340 45.767, 24 47 C 24.660 48.233, 24.752 48.965, 24.205 48.626 C 23.657 48.288, 22.952 48.684, 22.636 49.506 C 22.321 50.328, 21.094 51, 19.909 51 C 18.047 51, 17.935 51.217, 19.084 52.601 C 21.124 55.059, 21.059 57.172, 18.928 57.729 C 17.085 58.211, 17 59.403, 17 84.676 C 17 99.797, 17.380 110.883, 17.887 110.570 C 18.374 110.269, 19.300 110.657, 19.944 111.432 C 20.900 112.585, 20.738 112.744, 19.057 112.305 C 17.842 111.987, 17 112.248, 17 112.942 C 17 113.589, 17.399 113.871, 17.887 113.570 C 18.374 113.269, 19.296 113.652, 19.935 114.422 C 20.820 115.488, 20.810 115.999, 19.894 116.565 C 19.081 117.068, 18.953 116.885, 19.500 116 C 20.038 115.129, 19.919 114.932, 19.142 115.412 C 18.500 115.809, 18.318 116.674, 18.738 117.336 C 22.614 123.449, 25.474 127, 26.522 127 C 27.213 127, 27.715 127.787, 27.639 128.750 C 27.563 129.713, 28.062 130.388, 28.750 130.250 C 29.437 130.113, 29.887 130.563, 29.750 131.250 C 29.612 131.938, 30.084 132.380, 30.797 132.234 C 31.550 132.080, 31.970 132.710, 31.797 133.734 C 31.597 134.924, 32.054 135.408, 33.199 135.218 C 34.428 135.014, 34.789 135.498, 34.506 136.968 C 34.078 139.193, 34.998 139.602, 36.670 137.930 C 37.430 137.170, 37.655 137.637, 37.446 139.545 C 37.225 141.554, 38.141 143.230, 41.082 146.201 C 43.244 148.384, 44.777 150.551, 44.490 151.016 C 44.203 151.481, 44.425 152.144, 44.984 152.490 C 45.543 152.835, 46.032 152.529, 46.070 151.809 C 46.227 148.891, 47.854 154.757, 47.788 158 L 47.716 161.500 47 157.500 C 46.326 153.733, 46.276 153.686, 46.142 156.685 C 46.064 158.437, 46.427 160.994, 46.950 162.368 C 47.624 164.142, 47.552 165.008, 46.700 165.354 C 46.040 165.623, 46.362 165.878, 47.417 165.921 C 48.471 165.964, 49.060 166.273, 48.727 166.607 C 48.393 166.940, 48.656 167.795, 49.310 168.506 C 50.216 169.490, 50.845 169.525, 51.942 168.650 C 53.055 167.763, 53.212 167.786, 52.633 168.750 C 52.156 169.544, 52.472 170, 53.500 170 C 54.390 170, 54.908 169.662, 54.652 169.250 C 54.395 168.838, 59.486 168.638, 65.965 168.807 C 75.792 169.063, 78.013 168.844, 79.372 167.485 C 80.873 165.984, 81.451 166.265, 81.094 168.323 C 81.016 168.775, 81.975 169, 83.226 168.823 C 84.477 168.645, 85.507 168.050, 85.515 167.500 C 85.524 166.950, 85.862 165.979, 86.267 165.343 C 86.766 164.558, 86.355 164.356, 84.987 164.714 C 83.412 165.125, 83.111 164.873, 83.614 163.563 C 83.968 162.640, 84.763 162.077, 85.379 162.312 C 86.167 162.613, 86.469 159.588, 86.396 152.120 C 86.325 144.910, 85.935 141.576, 85.182 141.738 C 84.533 141.877, 84.335 141.290, 84.706 140.324 C 85.165 139.127, 84.975 138.897, 84.015 139.490 C 83.134 140.035, 82.930 139.923, 83.405 139.155 C 83.797 138.520, 84.766 138, 85.559 138 C 87.121 138, 87.345 137.064, 86.383 134.556 C 85.901 133.299, 85.460 133.203, 84.360 134.116 C 83.228 135.055, 83.079 134.957, 83.596 133.612 C 84.015 132.517, 84.888 132.147, 86.123 132.539 C 87.329 132.922, 88.227 132.571, 88.612 131.569 C 89.505 129.241, 91.321 129.666, 90.695 132.057 C 90.275 133.664, 90.443 133.877, 91.462 133.032 C 93.071 131.697, 94.262 134.095, 93.309 136.750 C 92.964 137.713, 93.049 138.166, 93.499 137.759 C 93.948 137.351, 94.925 137.523, 95.670 138.141 C 96.688 138.986, 96.745 139.603, 95.899 140.622 C 95.280 141.368, 94.449 141.778, 94.053 141.533 C 93.656 141.288, 93.546 145.902, 93.808 151.787 C 94.175 160.043, 94.651 162.767, 95.892 163.712 C 97.363 164.832, 97.358 164.939, 95.838 164.968 C 93.740 165.008, 94.075 167.903, 96.325 169.162 C 97.246 169.678, 98.056 169.852, 98.125 169.550 C 98.194 169.247, 98.362 168.550, 98.500 168 C 98.638 167.450, 98.813 166.662, 98.890 166.250 C 98.967 165.838, 99.456 166.175, 99.976 167 C 100.704 168.156, 103.801 168.615, 113.463 169 C 120.361 169.275, 126.003 169.162, 126.002 168.750 C 126.001 168.338, 126.477 168, 127.059 168 C 127.641 168, 127.864 168.410, 127.554 168.912 C 127.244 169.414, 127.780 169.709, 128.745 169.567 C 129.710 169.425, 130.507 168.902, 130.515 168.405 C 130.540 166.949, 132.078 164.931, 132.819 165.380 C 133.194 165.607, 133.561 163.027, 133.635 159.647 C 133.753 154.254, 133.679 153.991, 133.027 157.500 L 132.284 161.500 132.212 158 C 132.146 154.757, 133.773 148.891, 133.930 151.809 C 133.968 152.529, 134.457 152.835, 135.016 152.490 C 135.575 152.144, 135.788 151.465, 135.488 150.981 C 135.189 150.496, 136.482 148.700, 138.362 146.989 C 140.709 144.853, 141.622 143.270, 141.274 141.939 C 140.926 140.611, 141.276 140, 142.383 140 C 144.292 140, 144.545 138.387, 142.750 137.662 C 141.849 137.299, 141.832 137.136, 142.691 137.079 C 143.346 137.036, 144.175 137.474, 144.533 138.054 C 144.907 138.658, 146.390 137.492, 148.008 135.322 C 149.561 133.240, 150.611 131.179, 150.341 130.743 C 150.072 130.307, 150.447 130.074, 151.176 130.225 C 151.911 130.378, 152.438 129.722, 152.361 128.750 C 152.285 127.787, 152.795 127, 153.496 127 C 154.197 127, 155.523 125.763, 156.444 124.250 C 158.084 121.557, 158.081 121.543, 156.284 123.583 C 154.519 125.587, 150.504 126.611, 151.644 124.767 C 151.950 124.272, 152.418 124.085, 152.685 124.351 C 153.200 124.866, 155.687 123.014, 159.709 119.122 C 161.219 117.660, 161.977 116.021, 161.676 114.870 C 161.407 113.840, 161.595 113.249, 162.093 113.558 C 162.592 113.866, 163 113.589, 163 112.942 C 163 112.296, 162.213 111.973, 161.250 112.224 C 159.975 112.558, 159.461 112.046, 159.356 110.341 C 159.252 108.653, 159.744 108, 161.122 108 C 162.962 108, 163.022 106.990, 162.766 80.250 L 162.500 52.500 160.250 52.579 C 158.368 52.646, 158 52.134, 158 49.452 C 158 45.675, 156.639 44.317, 152.043 43.508 C 147.431 42.695, 147.287 42.540, 147.674 38.794 C 147.950 36.128, 147.837 35.881, 147.078 37.500 C 146.185 39.405, 146.137 39.390, 146.070 37.191 C 146.032 35.919, 145.551 35.160, 145 35.500 C 144.450 35.840, 144 35.615, 144 35 C 144 34.385, 143.578 34.143, 143.061 34.462 C 142.545 34.781, 141.659 34.245, 141.092 33.271 C 140.136 31.630, 140.059 31.626, 140.030 33.219 C 140.010 34.371, 139.478 34.737, 138.416 34.329 C 137.543 33.995, 137.269 33.447, 137.805 33.111 C 138.393 32.742, 138.246 32.006, 137.436 31.255 C 136.356 30.252, 135.875 30.350, 134.972 31.755 C 134.006 33.256, 133.920 33.267, 134.360 31.836 C 134.738 30.607, 133.490 29.496, 129.586 27.586 C 126.679 26.164, 123.658 25, 122.873 25 C 122.088 25, 120.426 24.286, 119.180 23.413 C 117.367 22.144, 116.618 22.072, 115.434 23.055 C 114.230 24.054, 114.060 24.007, 114.523 22.802 C 114.835 21.987, 114.396 20.743, 113.546 20.038 C 112.498 19.168, 112 19.117, 112 19.878 C 112 21.749, 110.002 21.132, 109.968 19.250 C 109.939 17.667, 109.797 17.685, 108.468 19.441 C 107.661 20.509, 106.944 20.846, 106.875 20.191 C 106.806 19.536, 106.694 18.534, 106.625 17.964 C 106.461 16.608, 103.820 14.993, 102.798 15.625 C 102.359 15.896, 102 15.555, 102 14.868 C 102 14.180, 101.339 14.491, 100.532 15.559 C 99.083 17.474, 99.063 17.473, 99.025 15.500 C 98.958 11.934, 89.887 8.214, 88.662 11.250 C 88.259 12.250, 88.142 12.250, 88.079 11.250 C 87.940 9.057, 86.327 9.899, 83.911 13.425 M 80.557 13.582 C 79.491 14.362, 79.041 14.993, 79.559 14.985 C 80.941 14.962, 83.520 13.186, 82.969 12.636 C 82.710 12.376, 81.624 12.802, 80.557 13.582 M 86.404 18.389 C 86.084 19.222, 86.114 20.376, 86.470 20.952 C 86.827 21.528, 86.641 22, 86.059 22 C 85.477 22, 85 21.550, 85 21 C 85 19.210, 83.001 19.948, 82.968 21.750 C 82.940 23.303, 82.799 23.326, 81.718 21.959 C 80.630 20.583, 80.314 20.609, 78.750 22.209 C 77.787 23.194, 77.477 24, 78.059 24 C 78.641 24, 78.835 24.457, 78.490 25.016 C 78.144 25.575, 77.474 25.793, 77 25.500 C 76.526 25.207, 75.813 25.493, 75.416 26.135 C 74.910 26.955, 74.256 26.736, 73.222 25.401 C 71.786 23.547, 71.762 23.549, 72.217 25.503 C 72.588 27.098, 71.603 28.064, 67.373 30.253 C 62.946 32.544, 62.166 32.710, 62.687 31.251 C 63.031 30.288, 62.296 30.754, 61.054 32.288 C 59.463 34.252, 58.443 34.783, 57.602 34.084 C 56.210 32.930, 51.904 33.036, 52.628 34.208 C 53.087 34.950, 51.533 35.416, 49.676 35.094 C 49.222 35.015, 49.141 35.419, 49.495 35.992 C 49.849 36.564, 50.670 36.714, 51.319 36.324 C 51.969 35.935, 51.857 36.408, 51.071 37.376 C 49.726 39.033, 49.568 39.001, 48.357 36.818 C 46.971 34.319, 46.865 34.369, 46.511 37.696 C 46.383 38.904, 46.891 40.128, 47.639 40.415 C 48.388 40.702, 49 41.681, 49 42.591 C 49 43.974, 49.255 44.034, 50.556 42.953 C 51.412 42.243, 52.034 42.075, 51.938 42.581 C 51.842 43.086, 51.831 44.400, 51.913 45.500 C 52.062 47.474, 52.083 47.475, 53.532 45.559 C 54.827 43.846, 55 43.819, 55 45.328 C 55 46.593, 55.632 46.925, 57.424 46.600 C 58.834 46.344, 60.054 46.699, 60.343 47.450 C 60.615 48.160, 63.124 49.563, 65.919 50.568 C 68.713 51.573, 71 52.756, 71 53.198 C 71 53.639, 71.675 54, 72.500 54 C 73.325 54, 74 54.675, 74 55.500 C 74 56.325, 74.450 57, 75 57 C 75.550 57, 76 56.475, 76 55.833 C 76 55.192, 76.289 54.956, 76.643 55.309 C 76.996 55.663, 76.749 56.597, 76.094 57.387 C 75.172 58.498, 75.174 58.990, 76.106 59.565 C 76.822 60.008, 77.048 59.887, 76.666 59.268 C 75.641 57.609, 79.463 57.138, 82.098 58.598 C 83.419 59.330, 84.050 59.965, 83.500 60.008 C 82.950 60.052, 84.270 60.718, 86.434 61.489 C 88.598 62.260, 90.704 62.683, 91.115 62.429 C 91.526 62.175, 92.099 62.351, 92.389 62.820 C 93.374 64.413, 97.519 63.406, 97.206 61.649 C 97.045 60.742, 97.409 60, 98.015 60 C 98.622 60, 98.797 59.480, 98.405 58.845 C 97.959 58.124, 98.131 57.963, 98.862 58.415 C 99.506 58.813, 99.793 59.526, 99.500 60 C 99.207 60.474, 99.385 61.120, 99.896 61.436 C 100.407 61.752, 100.708 60.943, 100.565 59.638 C 100.360 57.772, 100.696 57.369, 102.141 57.747 C 103.151 58.011, 103.688 58.696, 103.334 59.268 C 102.952 59.887, 103.178 60.008, 103.894 59.565 C 104.826 58.990, 104.828 58.498, 103.906 57.387 C 103.251 56.597, 103.004 55.663, 103.357 55.309 C 103.711 54.956, 104 55.192, 104 55.833 C 104 56.475, 104.450 57, 105 57 C 105.550 57, 106 56.325, 106 55.500 C 106 54.675, 106.675 54, 107.500 54 C 108.325 54, 109 53.639, 109 53.198 C 109 52.756, 111.287 51.573, 114.081 50.568 C 116.876 49.563, 119.385 48.160, 119.657 47.450 C 119.946 46.699, 121.166 46.344, 122.576 46.600 C 124.387 46.928, 125.008 46.591, 125.030 45.270 C 125.058 43.649, 125.153 43.659, 126.160 45.393 C 127.172 47.136, 127.368 47.030, 128.617 44.059 C 129.856 41.114, 130.113 40.970, 131.559 42.416 C 133.715 44.572, 134.288 44.406, 133 42 C 132.411 40.900, 132.300 40, 132.752 40 C 133.870 40, 134.088 36.173, 133.008 35.505 C 132.533 35.211, 131.860 35.865, 131.514 36.957 C 130.984 38.627, 130.581 38.756, 128.992 37.763 C 127.694 36.953, 127.407 36.214, 128.076 35.408 C 128.740 34.608, 128.568 34.048, 127.538 33.653 C 126.705 33.333, 126.072 33.393, 126.130 33.786 C 126.429 35.787, 125.896 37.400, 125.235 36.500 C 124.831 35.950, 122.813 34.720, 120.750 33.766 C 118.688 32.813, 117 31.383, 117 30.589 C 117 29.796, 115.650 28.473, 114 27.650 C 110.935 26.121, 109.925 26.863, 112.342 28.869 C 113.080 29.481, 114.052 29.649, 114.502 29.241 C 114.952 28.834, 115.003 29.053, 114.614 29.730 C 113.679 31.357, 110 29.184, 110 27.004 C 110 24.849, 104.153 22.413, 102.100 23.712 C 100.027 25.023, 95.715 23.185, 96.439 21.299 C 96.838 20.258, 96.521 20.186, 95.038 20.980 C 93.718 21.686, 92.919 21.678, 92.472 20.955 C 92.115 20.377, 91.075 19.978, 90.161 20.067 C 87.290 20.349, 86.451 20, 87.857 19.110 C 88.809 18.506, 88.882 18.045, 88.100 17.562 C 87.487 17.183, 86.724 17.555, 86.404 18.389 M 91.595 17.847 C 91.274 18.366, 91.748 19.073, 92.649 19.419 C 94.859 20.267, 95.376 19.557, 93.613 18.094 C 92.758 17.384, 91.943 17.284, 91.595 17.847 M 102.500 18 C 102.160 18.550, 102.359 19, 102.941 19 C 103.523 19, 104 18.550, 104 18 C 104 17.450, 103.802 17, 103.559 17 C 103.316 17, 102.840 17.450, 102.500 18 M 98.564 21.707 C 98.022 23.132, 98.136 23.247, 99.124 22.267 C 99.808 21.588, 100.115 20.781, 99.807 20.474 C 99.499 20.166, 98.940 20.721, 98.564 21.707 M 58.667 24.667 C 57.735 25.599, 57.835 27, 58.833 27 C 59.292 27, 59.667 26.325, 59.667 25.500 C 59.667 23.801, 59.594 23.740, 58.667 24.667 M 63 25 C 63 25.733, 63.300 26.033, 63.667 25.667 C 64.033 25.300, 64.033 24.700, 63.667 24.333 C 63.300 23.967, 63 24.267, 63 25 M 121 27 C 121 27.733, 121.300 28.033, 121.667 27.667 C 122.033 27.300, 122.033 26.700, 121.667 26.333 C 121.300 25.967, 121 26.267, 121 27 M 126 27.933 C 126 28.446, 126.907 29.153, 128.015 29.505 C 129.123 29.856, 129.817 30.487, 129.559 30.905 C 129.300 31.324, 129.770 31.667, 130.604 31.667 C 131.673 31.667, 131.378 30.978, 129.604 29.333 C 126.888 26.815, 126 26.470, 126 27.933 M 118.667 29.667 C 117.561 30.772, 117.908 31.751, 119.641 32.416 C 120.939 32.914, 121.045 32.760, 120.150 31.681 C 119.527 30.930, 119.313 30.020, 119.675 29.658 C 120.037 29.296, 120.108 29, 119.833 29 C 119.558 29, 119.033 29.300, 118.667 29.667 M 45 32.500 C 45 33.325, 45.177 34, 45.393 34 C 45.609 34, 46.045 33.325, 46.362 32.500 C 46.678 31.675, 46.501 31, 45.969 31 C 45.436 31, 45 31.675, 45 32.500 M 54.564 35.707 C 54.022 37.132, 54.136 37.247, 55.124 36.267 C 55.808 35.588, 56.115 34.781, 55.807 34.474 C 55.499 34.166, 54.940 34.721, 54.564 35.707 M 129.405 36.155 C 128.962 36.870, 129.130 37.038, 129.845 36.595 C 130.998 35.883, 131.393 35, 130.559 35 C 130.316 35, 129.797 35.520, 129.405 36.155 M 44 38 C 44 38.733, 44.300 39.033, 44.667 38.667 C 45.033 38.300, 45.033 37.700, 44.667 37.333 C 44.300 36.967, 44 37.267, 44 38 M 135 38 C 135 38.733, 135.300 39.033, 135.667 38.667 C 136.033 38.300, 136.033 37.700, 135.667 37.333 C 135.300 36.967, 135 37.267, 135 38 M 144 38 C 144 38.733, 144.300 39.033, 144.667 38.667 C 145.033 38.300, 145.033 37.700, 144.667 37.333 C 144.300 36.967, 144 37.267, 144 38 M 26 46 C 26 46.550, 26.477 47, 27.059 47 C 27.641 47, 27.840 46.550, 27.500 46 C 27.160 45.450, 26.684 45, 26.441 45 C 26.198 45, 26 45.450, 26 46 M 42.305 47.057 C 42.746 48.745, 42.588 48.903, 41.421 47.935 C 40.201 46.922, 40 49.708, 40 67.678 C 40 82.446, 39.652 88.948, 38.817 89.783 C 37.907 90.693, 38.362 90.756, 40.792 90.060 C 43.005 89.425, 43.882 89.487, 43.724 90.268 C 43.399 91.880, 47.008 92.409, 48.356 90.947 C 49.224 90.006, 49.198 89.877, 48.250 90.412 C 47.562 90.800, 47 90.641, 47 90.059 C 47 89.477, 47.675 89, 48.500 89 C 49.325 89, 50 89.343, 50 89.763 C 50 90.182, 51.013 90.970, 52.250 91.513 C 53.487 92.056, 54.500 93.175, 54.500 94 C 54.500 94.852, 55.472 95.554, 56.750 95.625 C 60.196 95.816, 60.652 96.079, 58.824 96.820 C 57.333 97.425, 57.310 97.719, 58.614 99.495 C 59.870 101.206, 60.214 101.277, 61.024 99.995 C 61.544 99.173, 62.028 98.950, 62.100 99.500 C 62.172 100.050, 62.335 100.950, 62.463 101.500 C 62.591 102.050, 62.764 103.063, 62.848 103.750 C 62.931 104.438, 63.477 105, 64.059 105 C 64.641 105, 64.811 104.503, 64.436 103.896 C 64.061 103.289, 64.934 103.566, 66.377 104.511 C 69.588 106.615, 69.668 106.985, 66.750 106.233 C 64.751 105.718, 64.652 105.839, 65.863 107.316 C 66.613 108.230, 67.581 108.759, 68.014 108.492 C 69.174 107.774, 75.003 113.193, 74.985 114.973 C 74.971 116.325, 74.848 116.328, 73.909 115 C 72.966 113.667, 72.893 113.667, 73.257 115 C 73.482 115.825, 74.192 116.556, 74.833 116.625 C 75.475 116.694, 76.787 116.813, 77.750 116.890 C 79.210 117.007, 79.259 117.183, 78.048 117.949 C 77.249 118.455, 76.167 118.603, 75.643 118.280 C 75.108 117.949, 75.020 118.224, 75.443 118.907 C 75.856 119.576, 77.388 120.620, 78.847 121.228 C 86.005 124.208, 86 124.226, 86 95.961 C 86 80.159, 86.366 71.045, 87.010 70.830 C 87.565 70.645, 87.136 69.942, 86.056 69.267 C 84.607 68.362, 83.909 68.338, 83.392 69.175 C 82.933 69.918, 83.142 70.030, 84 69.500 C 84.858 68.970, 85.067 69.082, 84.608 69.825 C 83.717 71.266, 80 69.149, 80 67.200 C 80 66.475, 80.450 66.160, 81 66.500 C 81.550 66.840, 82 66.690, 82 66.166 C 82 64.579, 79.203 64.028, 78.637 65.504 C 78.197 66.651, 77.408 66.607, 73.919 65.236 C 71.614 64.331, 70.240 63.420, 70.865 63.212 C 72.982 62.506, 72.014 61.274, 69.553 61.544 C 67.884 61.727, 66.606 61.048, 65.530 59.406 C 64.663 58.083, 63.428 57, 62.786 57 C 62.143 57, 62.491 57.703, 63.559 58.563 C 64.845 59.598, 64.994 60, 64 59.753 C 63.175 59.548, 61.672 57.833, 60.659 55.940 C 58.926 52.700, 58.856 52.665, 59.453 55.349 L 60.088 58.199 56.794 55.853 C 54.982 54.563, 53.500 53.660, 53.500 53.846 C 53.500 54.033, 52.277 53.628, 50.781 52.946 C 47.629 51.510, 47.948 49.963, 51.251 50.668 C 52.777 50.994, 52.456 50.602, 50.250 49.449 C 48.462 48.515, 47 47.266, 47 46.675 C 47 45.956, 46.617 45.983, 45.842 46.758 C 44.966 47.634, 45.026 48.350, 46.092 49.708 C 47.375 51.341, 47.345 51.379, 45.750 50.128 C 44.788 49.373, 44 47.910, 44 46.878 C 44 45.845, 43.498 45, 42.883 45 C 42.249 45, 41.999 45.888, 42.305 47.057 M 134.701 45.699 C 133.653 45.971, 133.027 46.902, 133.201 47.929 C 133.596 50.259, 131.239 53, 128.842 53 C 127.790 53, 125.725 53.788, 124.253 54.750 C 122.782 55.712, 121.895 55.985, 122.283 55.355 C 122.671 54.725, 122.324 53.955, 121.513 53.643 C 120.453 53.237, 120.102 53.700, 120.269 55.289 C 120.458 57.098, 120.045 57.454, 118 57.247 C 116.050 57.050, 115.830 57.211, 117 57.982 C 118.574 59.018, 117.840 59.337, 114.500 59.070 C 113.011 58.951, 112.841 59.142, 113.834 59.816 C 114.917 60.552, 114.876 60.833, 113.616 61.317 C 112.762 61.645, 111.794 61.475, 111.463 60.940 C 110.506 59.392, 109.022 60.893, 109.717 62.706 C 110.196 63.954, 109.934 64.189, 108.622 63.685 C 107.595 63.291, 107.144 63.423, 107.507 64.011 C 107.843 64.555, 107.641 65, 107.059 65 C 106.477 65, 106 64.307, 106 63.461 C 106 62.194, 105.753 62.150, 104.605 63.211 C 103.838 63.920, 103.414 64.838, 103.664 65.250 C 103.914 65.662, 103.416 66, 102.559 66 C 101.702 66, 100.993 66.787, 100.985 67.750 C 100.973 69.052, 100.759 69.168, 100.146 68.203 C 99.488 67.165, 99.068 67.213, 98.048 68.442 C 97.347 69.287, 96.305 69.688, 95.732 69.334 C 95.128 68.961, 94.990 69.175, 95.405 69.845 C 95.797 70.480, 95.641 71, 95.059 71 C 94.342 71, 94 79.035, 94 95.878 C 94 124.234, 93.993 124.209, 101.153 121.228 C 102.612 120.620, 104.144 119.576, 104.557 118.907 C 104.980 118.224, 104.892 117.949, 104.357 118.280 C 103.833 118.603, 102.751 118.455, 101.952 117.949 C 100.786 117.212, 100.894 117.025, 102.500 117 C 103.600 116.983, 105.175 116.484, 106 115.890 C 107.270 114.977, 107.233 114.897, 105.765 115.369 C 104.291 115.842, 104.205 115.645, 105.193 114.063 C 105.833 113.038, 106.896 112.406, 107.555 112.659 C 108.223 112.916, 109.048 111.946, 109.418 110.469 C 109.846 108.765, 110.579 108.008, 111.469 108.350 C 112.231 108.642, 113.449 108.155, 114.177 107.267 C 115.337 105.852, 115.223 105.725, 113.250 106.233 C 110.332 106.985, 110.412 106.615, 113.623 104.511 C 115.066 103.566, 115.939 103.289, 115.564 103.896 C 114.153 106.179, 116.128 104.869, 119.522 101.270 C 122.615 97.992, 122.826 97.456, 121.270 96.840 C 119.424 96.110, 119.675 95.916, 123 95.500 C 124.100 95.362, 125.225 95.138, 125.500 95 C 125.944 94.778, 126.819 94.526, 128.535 94.125 C 128.830 94.056, 128.539 92.987, 127.890 91.750 L 126.709 89.500 129.026 91.500 C 130.301 92.600, 131.015 92.938, 130.613 92.250 C 130.186 91.521, 130.427 90.971, 131.191 90.930 C 131.911 90.891, 131.600 90.473, 130.500 90 C 128.824 89.280, 129.026 89.129, 131.750 89.070 C 133.537 89.032, 135 89.450, 135 90 C 135 90.550, 135.477 91, 136.059 91 C 136.641 91, 136.858 90.579, 136.540 90.064 C 136.182 89.485, 137.181 89.478, 139.163 90.047 C 141.627 90.754, 142.093 90.693, 141.183 89.783 C 140.349 88.949, 140 82.520, 140 68 C 140 48.514, 139.496 44.600, 137.050 45.116 C 136.748 45.180, 135.691 45.442, 134.701 45.699 M 136.333 46.667 C 136.700 47.033, 137.300 47.033, 137.667 46.667 C 138.033 46.300, 137.733 46, 137 46 C 136.267 46, 135.967 46.300, 136.333 46.667 M 20 48.500 C 18.990 49.717, 19.030 50, 20.211 50 C 21.012 50, 21.667 49.325, 21.667 48.500 C 21.667 47.675, 21.572 47, 21.456 47 C 21.340 47, 20.685 47.675, 20 48.500 M 56.405 48.155 C 55.962 48.870, 56.130 49.038, 56.845 48.595 C 57.998 47.883, 58.393 47, 57.559 47 C 57.316 47, 56.797 47.520, 56.405 48.155 M 122.500 48 C 122.840 48.550, 123.343 49, 123.618 49 C 123.893 49, 123.840 48.550, 123.500 48 C 123.160 47.450, 122.657 47, 122.382 47 C 122.107 47, 122.160 47.450, 122.500 48 M 155.405 48.155 C 154.962 48.870, 155.130 49.038, 155.845 48.595 C 156.998 47.883, 157.393 47, 156.559 47 C 156.316 47, 155.797 47.520, 155.405 48.155 M 32.275 49.550 C 32.603 50.127, 31.934 51.184, 30.790 51.899 C 29.035 52.995, 28.796 52.974, 29.260 51.766 C 29.573 50.948, 29.216 50.333, 28.427 50.333 C 27.481 50.333, 27.229 51.065, 27.629 52.657 C 28.022 54.222, 27.713 55.173, 26.683 55.568 C 25.843 55.891, 24.900 56.818, 24.589 57.629 C 24.264 58.476, 24.453 58.838, 25.034 58.479 C 25.705 58.064, 26.027 66.358, 25.992 83.177 C 25.964 97.105, 26.372 109.962, 26.900 111.750 C 27.715 114.506, 27.605 115.002, 26.180 115.015 C 24.877 115.027, 24.799 115.220, 25.835 115.877 C 26.570 116.343, 27.099 117.022, 27.010 117.387 C 26.922 117.752, 27.035 118.376, 27.261 118.775 C 27.487 119.174, 27.535 118.938, 27.367 118.250 C 27.200 117.563, 27.429 117, 27.876 117 C 29.191 117, 32.066 120.600, 31.336 121.331 C 30.968 121.699, 31.210 122, 31.875 122 C 33.797 122, 37.283 125.734, 36.517 126.972 C 36.014 127.787, 35.388 127.739, 34.248 126.799 C 32.932 125.712, 32.758 125.745, 33.185 127 C 33.466 127.825, 34.837 128.486, 36.232 128.470 C 37.778 128.451, 38.592 128.900, 38.316 129.618 C 38.067 130.267, 38.414 131.138, 39.086 131.553 C 39.920 132.068, 40.051 131.892, 39.500 131 C 38.944 130.101, 39.080 129.931, 39.933 130.458 C 40.827 131.011, 40.870 131.530, 40.087 132.313 C 38.410 133.990, 38.801 135.410, 40.542 133.965 C 41.797 132.924, 42.310 132.928, 43.292 133.990 C 44.256 135.031, 44.163 135.176, 42.833 134.710 C 41.851 134.366, 40.931 134.738, 40.594 135.615 C 40.269 136.461, 40.453 136.838, 41.019 136.488 C 41.567 136.150, 42.723 136.580, 43.588 137.445 C 44.453 138.311, 45.562 138.771, 46.051 138.468 C 46.541 138.166, 47.228 139.058, 47.577 140.452 C 47.927 141.846, 48.568 142.767, 49.002 142.499 C 49.436 142.231, 50.057 142.707, 50.384 143.558 C 50.767 144.557, 50.573 144.854, 49.834 144.397 C 49.163 143.982, 48.964 144.132, 49.352 144.760 C 49.715 145.348, 49.470 146.010, 48.807 146.231 C 48.059 146.480, 48.266 146.888, 49.352 147.305 C 50.400 147.707, 50.858 147.580, 50.493 146.989 C 49.361 145.157, 51.673 145.981, 53.582 148.090 C 55.369 150.065, 55.378 150.251, 53.737 151.451 C 52.586 152.292, 52 154.078, 52 156.744 C 52 161.748, 52.647 161.967, 67.500 161.989 L 78.500 162.005 78.178 153.570 C 78.001 148.916, 78.328 144.256, 78.907 143.173 C 79.704 141.685, 79.600 140.913, 78.479 139.983 C 76.478 138.322, 76.613 135.342, 78.750 134.002 C 80.230 133.074, 80.134 133.005, 78.125 133.559 C 76.446 134.022, 75.962 133.871, 76.473 133.044 C 76.870 132.401, 76.444 131.043, 75.525 130.028 C 73.960 128.298, 73.970 128.114, 75.677 127.121 C 76.756 126.493, 76.966 126.048, 76.191 126.030 C 75.471 126.014, 75.062 125.662, 75.282 125.250 C 75.503 124.837, 74.882 123.741, 73.904 122.813 C 72.661 121.633, 71.992 121.483, 71.682 122.313 C 71.379 123.128, 70.654 122.934, 69.370 121.696 C 67.883 120.262, 67.833 120.017, 69.122 120.504 C 70.403 120.987, 70.648 120.609, 70.284 118.705 C 69.932 116.865, 69.264 116.356, 67.457 116.554 C 66.155 116.697, 64.565 116.181, 63.923 115.407 C 63.184 114.516, 63.136 114, 63.794 114 C 64.366 114, 65.013 114.540, 65.234 115.201 C 65.501 116.004, 65.849 116.053, 66.285 115.348 C 66.643 114.769, 66.284 113.441, 65.487 112.397 C 64.239 110.763, 63.903 110.706, 63.063 111.987 C 62.282 113.180, 62.121 113.044, 62.252 111.307 C 62.342 110.114, 62.841 109.402, 63.362 109.724 C 63.883 110.046, 63.988 109.789, 63.595 109.155 C 62.456 107.310, 61 107.818, 61 110.059 C 61 111.191, 60.546 111.838, 59.992 111.495 C 59.438 111.152, 59.178 109.803, 59.415 108.497 C 59.733 106.743, 59.470 106.266, 58.410 106.673 C 56.725 107.319, 53.773 105.177, 54.570 103.887 C 54.871 103.399, 54.703 103, 54.195 103 C 53.688 103, 52.062 101.790, 50.583 100.311 C 47.871 97.599, 44 96.456, 44 98.367 C 44 98.985, 43.518 98.918, 42.800 98.200 C 41.131 96.531, 39 96.700, 39 98.500 C 39 99.325, 39.675 100, 40.500 100 C 41.325 100, 42 100.450, 42 101 C 42 101.550, 41.534 102, 40.965 102 C 40.315 102, 40.395 102.837, 41.179 104.250 C 41.867 105.487, 42.445 106.800, 42.465 107.167 C 42.484 107.533, 42.834 108.167, 43.241 108.575 C 43.649 108.982, 43.496 109.902, 42.902 110.618 C 42.057 111.636, 42.321 111.823, 44.113 111.478 C 46.836 110.954, 48.353 112.870, 46.747 114.805 C 45.858 115.876, 45.947 116.103, 47.152 115.839 C 49.151 115.400, 54 121.147, 54 123.953 C 54 125.144, 54.450 125.840, 55 125.500 C 55.550 125.160, 56.498 125.190, 57.108 125.567 C 57.819 126.006, 57.289 127.047, 55.625 128.477 C 54.201 129.701, 53.215 130.882, 53.434 131.101 C 53.653 131.320, 52.745 131.565, 51.416 131.644 C 49.243 131.774, 48.532 130.962, 48.882 128.750 C 48.947 128.338, 48.550 128, 48 128 C 47.450 128, 47 127.298, 47 126.441 C 47 125.584, 46.599 125.130, 46.109 125.432 C 45.620 125.735, 44.484 124.862, 43.586 123.491 C 42.386 121.659, 42.291 120.996, 43.227 120.985 C 43.927 120.977, 43.375 120.378, 42 119.654 C 40.625 118.929, 39.613 117.811, 39.750 117.168 C 39.888 116.526, 39.438 116.112, 38.750 116.250 C 38.063 116.387, 37.439 115.825, 37.365 115 C 37.291 114.175, 37.126 113.050, 36.997 112.500 C 36.868 111.950, 36.816 111.162, 36.882 110.750 C 36.947 110.338, 36.550 110, 36 110 C 35.450 110, 35 110.525, 35 111.167 C 35 111.808, 34.711 112.044, 34.357 111.691 C 34.004 111.337, 34.239 110.417, 34.879 109.646 C 35.806 108.529, 35.609 108.131, 33.909 107.686 C 31.998 107.187, 31.836 106.634, 32.356 102.386 C 33.213 95.388, 33.257 49.911, 32.408 49.151 C 32.007 48.793, 31.947 48.972, 32.275 49.550 M 131.405 50.155 C 130.962 50.870, 131.130 51.038, 131.845 50.595 C 132.998 49.883, 133.393 49, 132.559 49 C 132.316 49, 131.797 49.520, 131.405 50.155 M 146.967 49.691 C 146.881 51.814, 147.239 98.874, 147.361 101.500 C 147.450 103.422, 147.051 104.410, 146.250 104.250 C 145.563 104.112, 145 104.661, 145 105.469 C 145 106.363, 145.586 106.712, 146.500 106.362 C 148.974 105.412, 148.191 107.560, 145.548 108.974 C 144.199 109.696, 143.127 110.560, 143.166 110.893 C 143.205 111.227, 143.132 111.950, 143.003 112.500 C 142.874 113.050, 142.709 114.175, 142.635 115 C 142.561 115.825, 141.937 116.387, 141.250 116.250 C 140.562 116.112, 140.112 116.526, 140.250 117.168 C 140.387 117.811, 139.375 118.929, 138 119.654 C 136.625 120.378, 136.073 120.977, 136.773 120.985 C 137.709 120.996, 137.614 121.659, 136.414 123.491 C 135.516 124.862, 134.380 125.735, 133.891 125.432 C 133.401 125.130, 133 125.584, 133 126.441 C 133 127.298, 132.550 128, 132 128 C 131.450 128, 131.053 128.338, 131.118 128.750 C 131.467 130.960, 130.758 131.774, 128.596 131.644 C 127.274 131.565, 126.400 131.162, 126.655 130.750 C 127.225 129.827, 125.583 129.750, 124.675 130.658 C 124.313 131.020, 124.519 131.920, 125.131 132.658 C 126.537 134.352, 125.265 134.433, 123.679 132.750 C 121.931 130.897, 121.539 127.602, 123.183 128.592 C 124.266 129.243, 124.270 129.100, 123.201 127.781 C 121.808 126.061, 123.151 124.358, 125 125.500 C 125.550 125.840, 126 125.144, 126 123.953 C 126 121.147, 130.849 115.400, 132.848 115.839 C 134.053 116.103, 134.142 115.876, 133.253 114.805 C 131.647 112.870, 133.164 110.954, 135.887 111.478 C 137.663 111.820, 137.939 111.631, 137.113 110.636 C 136.353 109.721, 136.385 109.015, 137.224 108.176 C 137.871 107.529, 138.069 107, 137.665 107 C 137.260 107, 137.430 106.065, 138.042 104.922 C 138.754 103.592, 139.755 103.053, 140.827 103.425 C 142.101 103.867, 142.037 103.647, 140.559 102.502 C 138.226 100.697, 137.484 97.588, 139.577 98.391 C 140.360 98.692, 141 98.501, 141 97.969 C 141 96.615, 138.641 96.759, 137.200 98.200 C 136.403 98.997, 136 99.035, 136 98.311 C 136 97.712, 135.213 97.285, 134.250 97.361 C 133.287 97.438, 132.613 96.938, 132.750 96.250 C 132.888 95.563, 132.502 95, 131.893 95 C 131.284 95, 131.032 95.641, 131.333 96.424 C 131.879 97.848, 127.548 103, 125.805 103 C 125.297 103, 125.129 103.399, 125.430 103.887 C 126.227 105.177, 123.275 107.319, 121.590 106.673 C 120.530 106.266, 120.267 106.743, 120.585 108.497 C 120.822 109.803, 120.562 111.152, 120.008 111.495 C 119.454 111.838, 119 111.191, 119 110.059 C 119 107.818, 117.544 107.310, 116.405 109.155 C 116.012 109.789, 116.117 110.046, 116.638 109.724 C 117.159 109.402, 117.658 110.114, 117.748 111.307 C 117.879 113.044, 117.718 113.180, 116.937 111.987 C 116.097 110.706, 115.761 110.763, 114.513 112.397 C 113.716 113.441, 113.357 114.769, 113.715 115.348 C 114.151 116.053, 114.499 116.004, 114.766 115.201 C 114.987 114.540, 115.634 114, 116.206 114 C 116.837 114, 116.759 114.585, 116.009 115.489 C 115.329 116.308, 114.405 116.751, 113.956 116.473 C 113.506 116.195, 112.856 116.425, 112.510 116.984 C 112.165 117.543, 112.359 118, 112.941 118 C 113.523 118, 113.100 118.900, 112 120 C 110.900 121.100, 109.367 122, 108.594 122 C 107.717 122, 107.370 122.698, 107.671 123.851 C 107.937 124.869, 107.558 126.331, 106.828 127.101 C 105.187 128.830, 103 134.914, 103 137.750 C 103 138.909, 102.280 140.577, 101.401 141.456 C 100.152 142.705, 100.059 143.367, 100.979 144.474 C 101.734 145.384, 102.038 148.781, 101.828 153.949 L 101.500 162.005 112.500 161.989 C 127.498 161.967, 128 161.788, 128 156.467 C 128 153.962, 127.478 151.956, 126.750 151.662 C 125.750 151.259, 125.750 151.142, 126.750 151.079 C 127.438 151.036, 128 150.298, 128 149.441 C 128 148.584, 127.550 148.160, 127 148.500 C 125.453 149.456, 125.818 148.325, 127.645 146.498 C 128.949 145.193, 129.457 145.121, 130.091 146.147 C 130.531 146.859, 131.162 147.171, 131.493 146.840 C 131.824 146.509, 131.388 145.531, 130.524 144.667 C 129.096 143.239, 129.137 142.997, 130.976 142.013 C 132.089 141.417, 133 140.343, 133 139.625 C 133 138.908, 134.125 137.808, 135.500 137.182 C 136.875 136.555, 138 135.557, 138 134.962 C 138 134.368, 137.438 134.200, 136.750 134.588 C 136.063 134.976, 136.154 134.665, 136.954 133.897 C 137.754 133.129, 139.025 131.825, 139.778 131 C 140.795 129.887, 140.961 129.862, 140.420 130.905 C 139.924 131.860, 140.082 132.067, 140.914 131.553 C 141.586 131.138, 141.933 130.267, 141.684 129.618 C 141.408 128.900, 142.222 128.451, 143.768 128.470 C 145.163 128.486, 146.534 127.825, 146.815 127 C 147.242 125.745, 147.068 125.712, 145.752 126.799 C 144.612 127.739, 143.986 127.787, 143.483 126.972 C 142.717 125.734, 146.203 122, 148.125 122 C 148.790 122, 149.032 121.699, 148.664 121.331 C 147.934 120.600, 150.809 117, 152.124 117 C 152.571 117, 152.684 117.787, 152.374 118.750 C 151.915 120.177, 152.001 120.232, 152.840 119.048 C 153.405 118.249, 153.646 117.237, 153.375 116.798 C 153.104 116.359, 153.349 116, 153.920 116 C 154.598 116, 154.545 115.096, 153.768 113.390 C 152.747 111.150, 152.848 110.584, 154.481 109.390 C 155.852 108.387, 155.981 107.996, 154.941 107.985 C 153.726 107.972, 153.735 107.818, 155 107 C 155.892 106.424, 156.019 106.024, 155.314 106.015 C 154.436 106.004, 154.105 99.759, 154.036 81.923 C 153.963 63.217, 154.215 58.015, 155.162 58.600 C 155.833 59.015, 155.364 57.708, 154.121 55.695 C 152.877 53.683, 152.143 51.578, 152.489 51.018 C 152.835 50.458, 152.641 50, 152.059 50 C 151.477 50, 151 50.675, 151 51.500 C 151 52.325, 150.550 53, 150 53 C 149.450 53, 149 52.352, 149 51.559 C 149 50.069, 147.025 48.254, 146.967 49.691 M 127 51 C 127 51.550, 127.477 52, 128.059 52 C 128.641 52, 128.840 51.550, 128.500 51 C 128.160 50.450, 127.684 50, 127.441 50 C 127.198 50, 127 50.450, 127 51 M 24.079 53.583 C 24.127 54.748, 24.364 54.985, 24.683 54.188 C 24.972 53.466, 24.936 52.603, 24.604 52.271 C 24.272 51.939, 24.036 52.529, 24.079 53.583 M 66.333 53.667 C 66.700 54.033, 67.300 54.033, 67.667 53.667 C 68.033 53.300, 67.733 53, 67 53 C 66.267 53, 65.967 53.300, 66.333 53.667 M 17.079 55.583 C 17.127 56.748, 17.364 56.985, 17.683 56.188 C 17.972 55.466, 17.936 54.603, 17.604 54.271 C 17.272 53.939, 17.036 54.529, 17.079 55.583 M 154.333 54.667 C 154.700 55.033, 155.300 55.033, 155.667 54.667 C 156.033 54.300, 155.733 54, 155 54 C 154.267 54, 153.967 54.300, 154.333 54.667 M 159.500 57 C 159.840 57.550, 160.343 58, 160.618 58 C 160.893 58, 160.840 57.550, 160.500 57 C 160.160 56.450, 159.657 56, 159.382 56 C 159.107 56, 159.160 56.450, 159.500 57 M 79.733 59.124 C 80.412 59.808, 81.219 60.115, 81.526 59.807 C 81.834 59.499, 81.279 58.940, 80.293 58.564 C 78.868 58.022, 78.753 58.136, 79.733 59.124 M 94.333 60.667 C 94.700 61.033, 95.300 61.033, 95.667 60.667 C 96.033 60.300, 95.733 60, 95 60 C 94.267 60, 93.967 60.300, 94.333 60.667 M 74 63 C 74 63.733, 74.300 64.033, 74.667 63.667 C 75.033 63.300, 75.033 62.700, 74.667 62.333 C 74.300 61.967, 74 62.267, 74 63 M 85.500 63 C 85.840 63.550, 86.343 64, 86.618 64 C 86.893 64, 86.840 63.550, 86.500 63 C 86.160 62.450, 85.657 62, 85.382 62 C 85.107 62, 85.160 62.450, 85.500 63 M 76.500 65 C 76.840 65.550, 77.343 66, 77.618 66 C 77.893 66, 77.840 65.550, 77.500 65 C 77.160 64.450, 76.657 64, 76.382 64 C 76.107 64, 76.160 64.450, 76.500 65 M 40 92 C 40 92.733, 40.300 93.033, 40.667 92.667 C 41.033 92.300, 41.033 91.700, 40.667 91.333 C 40.300 90.967, 40 91.267, 40 92 M 139 92 C 139 92.733, 139.300 93.033, 139.667 92.667 C 140.033 92.300, 140.033 91.700, 139.667 91.333 C 139.300 90.967, 139 91.267, 139 92 M 51.500 94 C 51.840 94.550, 52.343 95, 52.618 95 C 52.893 95, 52.840 94.550, 52.500 94 C 52.160 93.450, 51.657 93, 51.382 93 C 51.107 93, 51.160 93.450, 51.500 94 M 134.469 95.050 C 133.551 96.536, 134.281 97.062, 135.886 96.071 C 136.745 95.539, 136.848 95.024, 136.176 94.609 C 135.605 94.256, 134.837 94.455, 134.469 95.050 M 117.667 99.667 C 117.300 100.033, 117 100.798, 117 101.367 C 117 101.993, 117.466 101.934, 118.183 101.217 C 118.834 100.566, 119.134 99.801, 118.850 99.517 C 118.566 99.233, 118.033 99.300, 117.667 99.667 M 33.500 101 C 33.840 101.550, 34.316 102, 34.559 102 C 34.802 102, 35 101.550, 35 101 C 35 100.450, 34.523 100, 33.941 100 C 33.359 100, 33.160 100.450, 33.500 101 M 145 101.059 C 145 101.641, 145.450 101.840, 146 101.500 C 146.550 101.160, 147 100.684, 147 100.441 C 147 100.198, 146.550 100, 146 100 C 145.450 100, 145 100.477, 145 101.059 M 160 103.500 C 160 104.325, 160.177 105, 160.393 105 C 160.609 105, 161.045 104.325, 161.362 103.500 C 161.678 102.675, 161.501 102, 160.969 102 C 160.436 102, 160 102.675, 160 103.500 M 38.500 104 C 38.840 104.550, 39.343 105, 39.618 105 C 39.893 105, 39.840 104.550, 39.500 104 C 39.160 103.450, 38.657 103, 38.382 103 C 38.107 103, 38.160 103.450, 38.500 104 M 56.564 104.293 C 56.940 105.279, 57.499 105.834, 57.807 105.526 C 58.115 105.219, 57.808 104.412, 57.124 103.733 C 56.136 102.753, 56.022 102.868, 56.564 104.293 M 122.459 104.067 C 122.096 104.653, 122.014 105.348, 122.276 105.610 C 122.538 105.872, 123.019 105.392, 123.345 104.543 C 124.021 102.781, 123.445 102.471, 122.459 104.067 M 18.333 104.667 C 18.700 105.033, 19.300 105.033, 19.667 104.667 C 20.033 104.300, 19.733 104, 19 104 C 18.267 104, 17.967 104.300, 18.333 104.667 M 18.570 106.887 C 18.269 107.374, 18.692 108.329, 19.511 109.009 C 20.545 109.867, 21 109.902, 21 109.122 C 21 108.505, 20.523 108, 19.941 108 C 19.359 108, 19.160 107.550, 19.500 107 C 19.840 106.450, 19.893 106, 19.618 106 C 19.343 106, 18.871 106.399, 18.570 106.887 M 162 110 C 162 110.733, 162.300 111.033, 162.667 110.667 C 163.033 110.300, 163.033 109.700, 162.667 109.333 C 162.300 108.967, 162 109.267, 162 110 M 38.031 110.500 C 38.031 111.050, 38.467 112.175, 39 113 C 39.533 113.825, 39.969 114.050, 39.969 113.500 C 39.969 112.950, 39.533 111.825, 39 111 C 38.467 110.175, 38.031 109.950, 38.031 110.500 M 140.624 111.539 C 139.659 114.053, 139.943 114.702, 141.122 112.675 C 141.706 111.671, 141.973 110.639, 141.715 110.382 C 141.458 110.124, 140.966 110.645, 140.624 111.539 M 145 111 C 145 111.733, 145.300 112.033, 145.667 111.667 C 146.033 111.300, 146.033 110.700, 145.667 110.333 C 145.300 109.967, 145 110.267, 145 111 M 71.333 112.667 C 71.700 113.033, 72.300 113.033, 72.667 112.667 C 73.033 112.300, 72.733 112, 72 112 C 71.267 112, 70.967 112.300, 71.333 112.667 M 71 115 C 71 115.733, 71.300 116.033, 71.667 115.667 C 72.033 115.300, 72.033 114.700, 71.667 114.333 C 71.300 113.967, 71 114.267, 71 115 M 20 117.878 C 20 119.179, 22.947 121.387, 23.691 120.643 C 24.044 120.289, 23.808 120, 23.167 120 C 22.525 120, 22 119.325, 22 118.500 C 22 117.675, 21.550 117, 21 117 C 20.450 117, 20 117.395, 20 117.878 M 41.333 117.667 C 41.700 118.033, 42.300 118.033, 42.667 117.667 C 43.033 117.300, 42.733 117, 42 117 C 41.267 117, 40.967 117.300, 41.333 117.667 M 48 118 C 48 118.733, 48.300 119.033, 48.667 118.667 C 49.033 118.300, 49.033 117.700, 48.667 117.333 C 48.300 116.967, 48 117.267, 48 118 M 131 118 C 131 118.733, 131.300 119.033, 131.667 118.667 C 132.033 118.300, 132.033 117.700, 131.667 117.333 C 131.300 116.967, 131 117.267, 131 118 M 137.333 117.667 C 137.700 118.033, 138.300 118.033, 138.667 117.667 C 139.033 117.300, 138.733 117, 138 117 C 137.267 117, 136.967 117.300, 137.333 117.667 M 66.333 118.667 C 66.700 119.033, 67.300 119.033, 67.667 118.667 C 68.033 118.300, 67.733 118, 67 118 C 66.267 118, 65.967 118.300, 66.333 118.667 M 79.570 118.887 C 79.269 119.374, 79.657 120.300, 80.432 120.944 C 81.585 121.900, 81.744 121.738, 81.305 120.057 C 80.711 117.786, 80.386 117.567, 79.570 118.887 M 98.695 120.057 C 98.256 121.738, 98.415 121.900, 99.568 120.944 C 100.343 120.300, 100.731 119.374, 100.430 118.887 C 99.614 117.567, 99.289 117.786, 98.695 120.057 M 50 119.893 C 50 120.384, 50.739 121.069, 51.641 121.416 C 53.014 121.943, 53.076 121.796, 52.019 120.523 C 50.579 118.788, 50 118.607, 50 119.893 M 109 120 C 109 120.733, 109.300 121.033, 109.667 120.667 C 110.033 120.300, 110.033 119.700, 109.667 119.333 C 109.300 118.967, 109 119.267, 109 120 M 127.981 120.523 C 126.924 121.796, 126.986 121.943, 128.359 121.416 C 129.261 121.069, 130 120.384, 130 119.893 C 130 118.607, 129.421 118.788, 127.981 120.523 M 24.207 123.960 C 24.855 124.998, 26.167 125.788, 27.123 125.716 C 28.079 125.644, 28.637 125.221, 28.362 124.776 C 28.087 124.331, 27.443 124.226, 26.931 124.543 C 26.419 124.859, 26 124.690, 26 124.166 C 26 123.642, 25.332 122.957, 24.515 122.644 C 23.289 122.174, 23.235 122.404, 24.207 123.960 M 50.564 123.293 C 50.940 124.279, 51.499 124.834, 51.807 124.526 C 52.115 124.219, 51.808 123.412, 51.124 122.733 C 50.136 121.753, 50.022 121.868, 50.564 123.293 M 85.543 122.931 C 85.226 123.443, 85.425 124.144, 85.984 124.490 C 86.543 124.835, 87 124.416, 87 123.559 C 87 121.802, 86.400 121.544, 85.543 122.931 M 93 123.559 C 93 124.416, 93.457 124.835, 94.016 124.490 C 94.575 124.144, 94.774 123.443, 94.457 122.931 C 93.600 121.544, 93 121.802, 93 123.559 M 128.459 123.067 C 128.096 123.653, 128.014 124.348, 128.276 124.610 C 128.538 124.872, 129.019 124.392, 129.345 123.543 C 130.021 121.781, 129.445 121.471, 128.459 123.067 M 104.192 125.075 C 104.389 125.666, 104.977 126.150, 105.500 126.150 C 106.023 126.150, 106.611 125.666, 106.808 125.075 C 107.005 124.484, 106.417 124, 105.500 124 C 104.583 124, 103.995 124.484, 104.192 125.075 M 48.405 126.155 C 47.962 126.870, 48.130 127.038, 48.845 126.595 C 49.480 126.203, 50 125.684, 50 125.441 C 50 124.607, 49.117 125.002, 48.405 126.155 M 130.500 126 C 130.840 126.550, 131.343 127, 131.618 127 C 131.893 127, 131.840 126.550, 131.500 126 C 131.160 125.450, 130.657 125, 130.382 125 C 130.107 125, 130.160 125.450, 130.500 126 M 75 128.465 C 75 128.720, 75.890 129.406, 76.977 129.988 C 78.591 130.851, 78.847 130.766, 78.371 129.523 C 77.853 128.173, 75 127.278, 75 128.465 M 82.632 128.786 C 82.365 129.218, 83.014 129.571, 84.073 129.571 C 85.133 129.571, 86 129.218, 86 128.786 C 86 127.764, 83.264 127.764, 82.632 128.786 M 94 128.969 C 94 129.501, 94.675 129.678, 95.500 129.362 C 96.325 129.045, 97 128.609, 97 128.393 C 97 128.177, 96.325 128, 95.500 128 C 94.675 128, 94 128.436, 94 128.969 M 50.405 130.155 C 49.962 130.870, 50.130 131.038, 50.845 130.595 C 51.480 130.203, 52 129.684, 52 129.441 C 52 128.607, 51.117 129.002, 50.405 130.155 M 57 130.059 C 57 130.641, 56.601 130.872, 56.114 130.570 C 55.626 130.269, 54.986 130.944, 54.692 132.069 C 54.303 133.559, 54.586 134.032, 55.730 133.808 C 57.109 133.538, 58.774 129, 57.494 129 C 57.222 129, 57 129.477, 57 130.059 M 128.500 130 C 128.840 130.550, 129.343 131, 129.618 131 C 129.893 131, 129.840 130.550, 129.500 130 C 129.160 129.450, 128.657 129, 128.382 129 C 128.107 129, 128.160 129.450, 128.500 130 M 87 131 C 87 131.733, 87.300 132.033, 87.667 131.667 C 88.033 131.300, 88.033 130.700, 87.667 130.333 C 87.300 129.967, 87 130.267, 87 131 M 103 131 C 103 131.733, 103.300 132.033, 103.667 131.667 C 104.033 131.300, 104.033 130.700, 103.667 130.333 C 103.300 129.967, 103 130.267, 103 131 M 94.500 132 C 93.712 133.276, 94.759 135.005, 96.309 134.985 C 97.092 134.975, 97.028 134.670, 96.122 134.096 C 95.364 133.616, 95.053 132.723, 95.431 132.112 C 95.809 131.500, 95.893 131, 95.618 131 C 95.343 131, 94.840 131.450, 94.500 132 M 147 133 C 146.175 133.533, 145.950 133.983, 146.500 134 C 147.050 134.017, 146.825 134.467, 146 135 C 145.058 135.609, 144.952 135.975, 145.715 135.985 C 146.383 135.993, 147.411 135.100, 148 134 C 149.210 131.739, 149.108 131.638, 147 133 M 32.507 133.989 C 32.157 134.555, 32.558 134.723, 33.448 134.382 C 35.180 133.717, 35.497 133, 34.059 133 C 33.541 133, 32.843 133.445, 32.507 133.989 M 84.405 136.155 C 83.962 136.870, 84.130 137.038, 84.845 136.595 C 85.480 136.203, 86 135.684, 86 135.441 C 86 134.607, 85.117 135.002, 84.405 136.155 M 134.352 140.760 C 134.715 141.348, 134.447 142.057, 133.756 142.336 C 132.857 142.698, 132.839 142.865, 133.691 142.921 C 135.412 143.035, 136.239 141.265, 134.862 140.415 C 134.164 139.983, 133.958 140.123, 134.352 140.760 M 45.333 141.667 C 45.700 142.033, 46.300 142.033, 46.667 141.667 C 47.033 141.300, 46.733 141, 46 141 C 45.267 141, 44.967 141.300, 45.333 141.667 M 94.333 143.667 C 94.700 144.033, 95.300 144.033, 95.667 143.667 C 96.033 143.300, 95.733 143, 95 143 C 94.267 143, 93.967 143.300, 94.333 143.667 M 137.459 144.067 C 137.096 144.653, 137.014 145.348, 137.276 145.610 C 137.538 145.872, 138.019 145.392, 138.345 144.543 C 139.021 142.781, 138.445 142.471, 137.459 144.067 M 52 149 C 52 149.733, 52.300 150.033, 52.667 149.667 C 53.033 149.300, 53.033 148.700, 52.667 148.333 C 52.300 147.967, 52 148.267, 52 149 M 130.333 163.667 C 130.700 164.033, 131.300 164.033, 131.667 163.667 C 132.033 163.300, 131.733 163, 131 163 C 130.267 163, 129.967 163.300, 130.333 163.667" stroke="none" fill="#14bc84" fill-rule="evenodd"/></svg>